SplineFontDB: 3.0
FontName: TengwarFormalCSUR-Regular
FullName: Tengwar Formal CSUR
FamilyName: Tengwar Formal CSUR
Weight: Medium
Copyright: Copyright (c) September 2009, Michal Nowakowski (http://tengwarformal.limes.com.pl),\nwith Reserved Font Names "Tengwar Formal" and "Tengwar Formal A".\n\nTengwar Formal CSUR copyright (c) 2011, Johan Winge and J. "Mach" Wust (http://freetengwar.sourceforge.net/)\n\nThis Font Software is licensed under the SIL Open Font License, Version 1.1.\nThis license is provided in a separate file, LICENSE, supplied with the fonts,\nand is also available with a FAQ at: http://scripts.sil.org/OFL
UComments: "2010-1-26: Created." 
Version: 1.0
ItalicAngle: 0
UnderlinePosition: -204.8
UnderlineWidth: 102.4
Ascent: 1639
Descent: 409
LayerCount: 2
Layer: 0 0 "Back"  1
Layer: 1 0 "Fore"  0
NeedsXUIDChange: 1
XUID: [1021 269 264596955 9794134]
FSType: 0
OS2Version: 0
OS2_WeightWidthSlopeOnly: 0
OS2_UseTypoMetrics: 1
CreationTime: 1264509410
ModificationTime: 1270932979
OS2TypoAscent: 0
OS2TypoAOffset: 1
OS2TypoDescent: 0
OS2TypoDOffset: 1
OS2TypoLinegap: 184
OS2WinAscent: 0
OS2WinAOffset: 1
OS2WinDescent: 0
OS2WinDOffset: 1
HheadAscent: 0
HheadAOffset: 1
HheadDescent: 0
HheadDOffset: 1
OS2Vendor: 'PfEd'
DEI: 91125
LangName: 1033 "" "" "" "FontTengwarFormalCSUR10" "" "" "" "" "" "Micha+AUIA Nowakowski" "" "" "http://tengwarformal.limes.com.pl" "" "http://scripts.sil.org/OFL" 
Encoding: Custom
UnicodeInterp: none
NameList: Adobe Glyph List
DisplaySize: -48
AntiAlias: 1
FitToEm: 1
WinInfo: 0 16 10
BeginChars: 66 66

StartChar: quesseC
Encoding: 3 57399 0
Width: 806
VWidth: 1000
Flags: HW
LayerCount: 2
Fore
SplineSet
719 282 m 2
 719 -250 l 2
 719 -278 720 -306 720 -333 c 0
 720 -503 710 -649 643 -688 c 0
 636 -693 577 -730 556 -730 c 0
 553 -730 550 -729 549 -727 c 0
 543 -721 549 -708 563 -688 c 1
 615 -625 622 -532 622 -437 c 0
 622 -436 621 -318 621 -317 c 0
 623 -168 626 -94 626 -56 c 0
 626 -17 623 -18 610 -14 c 0
 554 0 503 5 455 5 c 1
 168 -6 l 1
 119 -2 69 27 20 82 c 0
 6 98 0 108 0 114 c 0
 0 119 5 121 14 121 c 0
 37 121 90 105 139 100 c 1
 100 196 76 266 76 356 c 3
 76 612 220 651 387 651 c 3
 489 651 555 624 618 566 c 0
 686 502 719 424 719 282 c 2
631 84 m 1
 630 96 630 109 630 121 c 0
 630 122 620 367 620 368 c 0
 585 470 466 549 389 549 c 0
 258 549 162 446 162 299 c 0
 162 248 180 151 190 100 c 1
 224 100 256 100 286 100 c 0
 494 100 609 94 631 84 c 1
EndSplineSet
Validated: 1
EndChar

StartChar: hallaRoomen
Encoding: 4 57404 1
Width: 600
VWidth: 1000
Flags: HW
LayerCount: 2
Fore
SplineSet
190 1137 m 1
 190 1087 l 2
 190 1086 189 526 189 519 c 1
 222 555 295 639 395 639 c 0
 511 639 553 585 553 497 c 0
 553 391 368 144 221 0 c 1
 94 -123 24 -201 24 -305 c 0
 24 -426 145 -510 245 -510 c 0
 321 -510 366 -465 380 -465 c 0
 382 -465 384 -467 384 -471 c 0
 384 -491 282 -625 210 -625 c 0
 114 -625 -60 -542 -60 -356 c 0
 -60 -237 11 -157 56 -103 c 1
 98 -21 102 54 102 172 c 0
 102 200 102 230 102 263 c 0
 102 280 102 298 102 317 c 0
 102 337 92 690 92 713 c 0
 92 987 92 1131 86 1143 c 0
 74 1172 37 1168 37 1184 c 0
 37 1198 82 1274 123 1274 c 0
 163 1274 188 1219 190 1137 c 1
182 47 m 1
 351 192 463 342 463 454 c 0
 463 515 399 554 338 554 c 0
 262 554 225 494 198 494 c 0
 195 494 192 495 189 496 c 1
 190 360 198 248 198 167 c 0
 198 112 195 71 182 47 c 1
EndSplineSet
Validated: 1
EndChar

StartChar: tengwarQuadruplepusta
Encoding: 7 57443 2
Width: 953
VWidth: 1000
Flags: HW
LayerCount: 2
Fore
SplineSet
397 67 m 0
 397 73.2197 411.667 95.8867 441 135 c 1
 452.333 148.333 460.333 155.333 465 156 c 0
 473 156 497.333 139.333 538 106 c 2
 543 102 l 2
 555 92.667 561.667 84 563 76 c 1
 563 62.667 549.333 40.667 522 10 c 0
 509.333 -4.66699 501.333 -12 498 -12 c 0
 492.667 -12 471.333 2.33301 434 31 c 0
 412.133 47.3994 400.467 57.0664 399 60 c 0
 397.667 62 397 64.333 397 67 c 0
397 614 m 0
 397 620.22 411.667 642.887 441 682 c 1
 452.333 695.333 460.333 702.333 465 703 c 0
 473 703 497.333 686.333 538 653 c 2
 543 649 l 2
 555 639.667 561.667 631 563 623 c 1
 563 609.667 549.333 587.667 522 557 c 0
 509.333 542.333 501.333 535 498 535 c 0
 492.667 535 471.333 549.333 434 578 c 0
 412.133 594.4 400.467 604.066 399 607 c 0
 397.667 609 397 611.333 397 614 c 0
663 348 m 0
 663 354.22 677.667 376.887 707 416 c 1
 718.333 429.333 726.333 436.333 731 437 c 0
 739 437 763.333 420.333 804 387 c 2
 809 383 l 2
 821 373.667 827.667 365 829 357 c 1
 829 343.667 815.333 321.667 788 291 c 0
 775.333 276.333 767.333 269 764 269 c 0
 758.667 269 737.333 283.333 700 312 c 0
 678.133 328.4 666.467 338.066 665 341 c 0
 663.667 343 663 345.333 663 348 c 0
131 348 m 0
 131 354.22 145.667 376.887 175 416 c 1
 186.333 429.333 194.333 436.333 199 437 c 0
 207 437 231.333 420.333 272 387 c 2
 277 383 l 2
 289 373.667 295.667 365 297 357 c 1
 297 343.667 283.333 321.667 256 291 c 0
 243.333 276.333 235.333 269 232 269 c 0
 226.667 269 205.333 283.333 168 312 c 0
 146.133 328.4 134.467 338.066 133 341 c 0
 131.667 343 131 345.333 131 348 c 0
EndSplineSet
Validated: 1
EndChar

StartChar: uni10FB
Encoding: 0 4347 3
Width: 728
VWidth: 1000
Flags: HW
LayerCount: 2
Fore
SplineSet
131 67 m 0
 131 73.2197 145.667 95.8867 175 135 c 1
 186.333 148.333 194.333 155.333 199 156 c 0
 207 156 231.333 139.333 272 106 c 2
 277 102 l 2
 289 92.667 295.667 84 297 76 c 1
 297 62.667 283.333 40.667 256 10 c 0
 243.333 -4.66699 235.333 -12 232 -12 c 0
 226.667 -12 205.333 2.33301 168 31 c 0
 146.133 47.3994 134.467 57.0664 133 60 c 0
 131.667 62 131 64.333 131 67 c 0
131 614 m 0
 131 620.22 145.667 642.887 175 682 c 1
 186.333 695.333 194.333 702.333 199 703 c 0
 207 703 231.333 686.333 272 653 c 2
 277 649 l 2
 289 639.667 295.667 631 297 623 c 1
 297 609.667 283.333 587.667 256 557 c 0
 243.333 542.333 235.333 535 232 535 c 0
 226.667 535 205.333 549.333 168 578 c 0
 146.133 594.4 134.467 604.066 133 607 c 0
 131.667 609 131 611.333 131 614 c 0
438 348 m 0
 438 354.22 452.667 376.887 482 416 c 1
 493.333 429.333 501.333 436.333 506 437 c 0
 514 437 538.333 420.333 579 387 c 2
 584 383 l 2
 596 373.667 602.667 365 604 357 c 1
 604 343.667 590.333 321.667 563 291 c 0
 550.333 276.333 542.333 269 539 269 c 0
 533.667 269 512.333 283.333 475 312 c 0
 453.133 328.4 441.467 338.066 440 341 c 0
 438.667 343 438 345.333 438 348 c 0
EndSplineSet
Validated: 1
EndChar

StartChar: uni2E2C
Encoding: 1 11820 4
Width: 842
VWidth: 1000
Flags: HW
LayerCount: 2
Fore
SplineSet
552 67 m 0
 552 73.2197 566.667 95.8867 596 135 c 1
 607.333 148.333 615.333 155.333 620 156 c 0
 628 156 652.333 139.333 693 106 c 2
 698 102 l 2
 710 92.667 716.667 84 718 76 c 1
 718 62.667 704.333 40.667 677 10 c 0
 664.333 -4.66699 656.333 -12 653 -12 c 0
 647.667 -12 626.333 2.33301 589 31 c 0
 567.133 47.3994 555.467 57.0664 554 60 c 0
 552.667 62 552 64.333 552 67 c 0
552 614 m 0
 552 620.22 566.667 642.887 596 682 c 1
 607.333 695.333 615.333 702.333 620 703 c 0
 628 703 652.333 686.333 693 653 c 2
 698 649 l 2
 710 639.667 716.667 631 718 623 c 1
 718 609.667 704.333 587.667 677 557 c 0
 664.333 542.333 656.333 535 653 535 c 0
 647.667 535 626.333 549.333 589 578 c 0
 567.133 594.4 555.467 604.066 554 607 c 0
 552.667 609 552 611.333 552 614 c 0
131 67 m 0
 131 73.2197 145.667 95.8867 175 135 c 1
 186.333 148.333 194.333 155.333 199 156 c 0
 207 156 231.333 139.333 272 106 c 2
 277 102 l 2
 289 92.667 295.667 84 297 76 c 1
 297 62.667 283.333 40.667 256 10 c 0
 243.333 -4.66699 235.333 -12 232 -12 c 0
 226.667 -12 205.333 2.33301 168 31 c 0
 146.133 47.3994 134.467 57.0664 133 60 c 0
 131.667 62 131 64.333 131 67 c 0
131 614 m 0
 131 620.22 145.667 642.887 175 682 c 1
 186.333 695.333 194.333 702.333 199 703 c 0
 207 703 231.333 686.333 272 653 c 2
 277 649 l 2
 289 639.667 295.667 631 297 623 c 1
 297 609.667 283.333 587.667 256 557 c 0
 243.333 542.333 235.333 535 232 535 c 0
 226.667 535 205.333 549.333 168 578 c 0
 146.133 594.4 134.467 604.066 133 607 c 0
 131.667 609 131 611.333 131 614 c 0
EndSplineSet
Validated: 1
EndChar

StartChar: tengwarQuintuplepusta
Encoding: 8 57444 5
Width: 932
VWidth: 1000
Flags: HW
LayerCount: 2
Fore
SplineSet
385 69 m 0
 385 75.2197 399.667 97.8867 429 137 c 1
 440.333 150.333 448.333 157.333 453 158 c 0
 461 158 485.333 141.333 526 108 c 2
 531 104 l 2
 543 94.667 549.667 86 551 78 c 1
 551 64.667 537.333 42.667 510 12 c 0
 497.333 -2.66699 489.333 -10 486 -10 c 0
 480.667 -10 459.333 4.33301 422 33 c 0
 400.133 49.3994 388.467 59.0664 387 62 c 0
 385.667 64 385 66.333 385 69 c 0
389 348 m 0
 389 354.22 403.667 376.887 433 416 c 1
 444.333 429.333 452.333 436.333 457 437 c 0
 465 437 489.333 420.333 530 387 c 2
 535 383 l 2
 547 373.667 553.667 365 555 357 c 1
 555 343.667 541.333 321.667 514 291 c 0
 501.333 276.333 493.333 269 490 269 c 0
 484.667 269 463.333 283.333 426 312 c 0
 404.133 328.4 392.467 338.066 391 341 c 0
 389.667 343 389 345.333 389 348 c 0
389 614 m 0
 389 620.22 403.667 642.887 433 682 c 1
 444.333 695.333 452.333 702.333 457 703 c 0
 465 703 489.333 686.333 530 653 c 2
 535 649 l 2
 547 639.667 553.667 631 555 623 c 1
 555 609.667 541.333 587.667 514 557 c 0
 501.333 542.333 493.333 535 490 535 c 0
 484.667 535 463.333 549.333 426 578 c 0
 404.133 594.4 392.467 604.066 391 607 c 0
 389.667 609 389 611.333 389 614 c 0
642 348 m 0
 642 354.22 656.667 376.887 686 416 c 1
 697.333 429.333 705.333 436.333 710 437 c 0
 718 437 742.333 420.333 783 387 c 2
 788 383 l 2
 800 373.667 806.667 365 808 357 c 1
 808 343.667 794.333 321.667 767 291 c 0
 754.333 276.333 746.333 269 743 269 c 0
 737.667 269 716.333 283.333 679 312 c 0
 657.133 328.4 645.467 338.066 644 341 c 0
 642.667 343 642 345.333 642 348 c 0
131 348 m 0
 131 354.22 145.667 376.887 175 416 c 1
 186.333 429.333 194.333 436.333 199 437 c 0
 207 437 231.333 420.333 272 387 c 2
 277 383 l 2
 289 373.667 295.667 365 297 357 c 1
 297 343.667 283.333 321.667 256 291 c 0
 243.333 276.333 235.333 269 232 269 c 0
 226.667 269 205.333 283.333 168 312 c 0
 146.133 328.4 134.467 338.066 133 341 c 0
 131.667 343 131 345.333 131 348 c 0
EndSplineSet
Validated: 1
EndChar

StartChar: tehtaDotInside
Encoding: 6 57434 6
Width: 0
VWidth: 1000
Flags: HW
LayerCount: 2
Fore
SplineSet
-509 348 m 0
 -509 354.22 -494.333 376.887 -465 416 c 1
 -453.667 429.333 -445.667 436.333 -441 437 c 0
 -433 437 -408.667 420.333 -368 387 c 2
 -363 383 l 2
 -351 373.667 -344.333 365 -343 357 c 1
 -343 343.667 -356.667 321.667 -384 291 c 0
 -396.667 276.333 -404.667 269 -408 269 c 0
 -413.333 269 -434.667 283.333 -472 312 c 0
 -493.867 328.4 -505.533 338.066 -507 341 c 0
 -508.333 343 -509 345.333 -509 348 c 0
EndSplineSet
Validated: 1
EndChar

StartChar: annaX
Encoding: 2 57398 7
Width: 806
VWidth: 1000
Flags: HW
LayerCount: 2
Fore
SplineSet
100 508 m 0
 100 537 70 556 50 564 c 0
 40 569 35 574 35 580 c 0
 35 593 45 610 64 633 c 0
 84 656 103 668 121 668 c 0
 170 668 194 626 194 582 c 24
 194 479 121 490 121 328 c 0
 121 248 144 200 189 152 c 128
 234 104 294 80 367 80 c 0
 436 80 498 131 555 233 c 0
 588 292 612 353 625 414 c 1
 624 431 623 447 623 462 c 0
 623 531 635 576 657 598 c 1
 679 622 703 639 730 650 c 0
 741 655 750 657 758 657 c 0
 776 657 791 643 804 616 c 0
 810 603 813 591 813 580 c 0
 813 555 807 543 795 543 c 0
 756 543 731 527 722 496 c 0
 717 480 715 457 715 428 c 0
 715 201 731 65 762 20 c 0
 776 -1 783 -18 783 -31 c 0
 783 -35 782 -40 780 -43 c 0
 778 -47 775 -49 770 -49 c 0
 758 -49 739 -37 711 -14 c 0
 670 20 644 70 635 136 c 0
 631 161 628 207 625 274 c 1
 581 173 540 102 502 61 c 0
 448 2 380 -27 299 -27 c 0
 221 -27 157 6 106 71 c 0
 60 130 35 205 35 284 c 1
 35 408 100 470 100 508 c 0
EndSplineSet
Validated: 1
EndChar

StartChar: vaiya
Encoding: 5 57405 8
Width: 806
VWidth: 1000
Flags: HW
LayerCount: 2
Fore
SplineSet
668 303 m 0
 668 384 635 453 570 511 c 0
 513 562 451 589 382 592 c 2
 371 592 l 2
 311 592 260 569 218 523 c 0
 177 478 156 419 156 348 c 128
 156 277 182 213 234 156 c 0
 288 97 353 67 428 66 c 0
 515 66 580 98 625 162 c 0
 654 203 668 250 668 303 c 0
644 78 m 1
 671.961 71.2687 703.407 67.4866 737.783 67.4866 c 0
 769.797 67.4866 804.352 70.7668 841 78 c 0
 854 80 861 77 860 70 c 0
 860 65 856 56 849 45 c 1
 823.454 -8.34543 784.925 -34.594 733.835 -34.594 c 0
 716.927 -34.594 698.644 -31.7191 679 -26 c 0
 631 -11 584 -4 538 -4 c 0
 483 -4 450 -18 379 -18 c 0
 295 -18 227 9 175 63 c 1
 113 125 81 204 78 299 c 1
 78 412 114 505 187 578 c 1
 256 642 334 675 420 678 c 1
 499 678 563 661 611 627 c 0
 632 612 655 590 680 563 c 0
 727 512 750 443 750 354 c 0
 750 236 715 144 644 78 c 1
EndSplineSet
Validated: 1
EndChar

StartChar: tehtaGrave.shift1
Encoding: 9 -1 9
Width: 0
VWidth: 1000
Flags: HW
LayerCount: 2
Fore
SplineSet
-327 1270 m 0
 -313.667 1270 -298.667 1263.67 -282 1251 c 0
 -276.667 1247.67 -252 1223.67 -208 1179 c 0
 -78.667 1047 -14 975 -14 963 c 1
 -16.667 957 -19.333 954 -22 954 c 2
 -26 954 l 2
 -32.667 954.667 -68 980 -132 1030 c 0
 -246 1119.33 -313 1174.67 -333 1196 c 0
 -348.333 1211.33 -356 1225 -356 1237 c 0
 -356 1259 -346.333 1270 -327 1270 c 0
EndSplineSet
Validated: 1
EndChar

StartChar: tehtaGrave.shift2
Encoding: 10 -1 10
Width: 0
VWidth: 1000
Flags: HW
LayerCount: 2
Fore
SplineSet
-456 1270 m 0
 -442.667 1270 -427.667 1263.67 -411 1251 c 0
 -405.667 1247.67 -381 1223.67 -337 1179 c 0
 -207.667 1047 -143 975 -143 963 c 1
 -145.667 957 -148.333 954 -151 954 c 2
 -155 954 l 2
 -161.667 954.667 -197 980 -261 1030 c 0
 -375 1119.33 -442 1174.67 -462 1196 c 0
 -477.333 1211.33 -485 1225 -485 1237 c 0
 -485 1259 -475.333 1270 -456 1270 c 0
EndSplineSet
Validated: 1
EndChar

StartChar: tehtaGrave.shift3
Encoding: 11 -1 11
Width: 0
VWidth: 1000
Flags: HW
LayerCount: 2
Fore
SplineSet
-587 1270 m 0
 -573.667 1270 -558.667 1263.67 -542 1251 c 0
 -536.667 1247.67 -512 1223.67 -468 1179 c 0
 -338.667 1047 -274 975 -274 963 c 1
 -276.667 957 -279.333 954 -282 954 c 2
 -286 954 l 2
 -292.667 954.667 -328 980 -392 1030 c 0
 -506 1119.33 -573 1174.67 -593 1196 c 0
 -608.333 1211.33 -616 1225 -616 1237 c 0
 -616 1259 -606.333 1270 -587 1270 c 0
EndSplineSet
Validated: 1
EndChar

StartChar: tehtaGrave.shift4
Encoding: 12 -1 12
Width: 0
VWidth: 1000
Flags: HW
LayerCount: 2
Fore
SplineSet
-716 1270 m 0
 -702.667 1270 -687.667 1263.67 -671 1251 c 0
 -665.667 1247.67 -641 1223.67 -597 1179 c 0
 -467.667 1047 -403 975 -403 963 c 1
 -405.667 957 -408.333 954 -411 954 c 2
 -415 954 l 2
 -421.667 954.667 -457 980 -521 1030 c 0
 -635 1119.33 -702 1174.67 -722 1196 c 0
 -737.333 1211.33 -745 1225 -745 1237 c 0
 -745 1259 -735.333 1270 -716 1270 c 0
EndSplineSet
Validated: 1
EndChar

StartChar: tehtaO_tehtaI.shift1
Encoding: 13 -1 13
Width: 0
VWidth: 1000
Flags: HW
LayerCount: 2
Fore
SplineSet
10 1300 m 4
 42 1300 58 1279 58 1237 c 4
 58 1201 38 1166.33 -2 1133 c 4
 -25.333 1112.33 -41.667 1102 -51 1102 c 4
 -57.667 1102 -61 1104.67 -61 1110 c 4
 -61 1112.67 -54.667 1120 -42 1132 c 4
 -27.333 1147.33 -20 1162 -20 1176 c 4
 -20 1194 -26 1206.67 -38 1214 c 4
 -41.333 1216 -44.333 1217 -47 1217 c 4
 -75 1217 -144.333 1154 -255 1028 c 6
 -282 997 l 6
 -318 955 -342 934 -354 934 c 4
 -359.333 934 -362 936 -362 940 c 4
 -362 951.333 -335 990 -281 1056 c 4
 -191.667 1166.67 -115.333 1240.67 -52 1278 c 4
 -27.333 1292.67 -6.66699 1300 10 1300 c 4
-190 994 m 0
 -190 1000.22 -175.333 1022.89 -146 1062 c 1
 -134.667 1075.33 -126.667 1082.33 -122 1083 c 0
 -114 1083 -89.667 1066.33 -49 1033 c 2
 -44 1029 l 2
 -32 1019.67 -25.333 1011 -24 1003 c 1
 -24 989.67 -37.667 967.67 -65 937 c 0
 -77.667 922.33 -85.667 915 -89 915 c 0
 -94.333 915 -115.667 929.33 -153 958 c 0
 -174.867 974.4 -186.533 984.07 -188 987 c 0
 -189.333 989 -190 991.33 -190 994 c 0
EndSplineSet
Validated: 1
EndChar

StartChar: tehtaO_tehtaI.shift2
Encoding: 14 -1 14
Width: 0
VWidth: 1000
Flags: HW
LayerCount: 2
Fore
SplineSet
-129 1300 m 0
 -97 1300 -81 1279 -81 1237 c 0
 -81 1201 -101 1166.33 -141 1133 c 0
 -164.333 1112.33 -180.667 1102 -190 1102 c 0
 -196.667 1102 -200 1104.67 -200 1110 c 0
 -200 1112.67 -193.667 1120 -181 1132 c 0
 -166.333 1147.33 -159 1162 -159 1176 c 0
 -159 1194 -165 1206.67 -177 1214 c 0
 -180.333 1216 -183.333 1217 -186 1217 c 0
 -214 1217 -283.333 1154 -394 1028 c 2
 -421 997 l 2
 -457 955 -481 934 -493 934 c 0
 -498.333 934 -501 936 -501 940 c 0
 -501 951.333 -474 990 -420 1056 c 0
 -330.667 1166.67 -254.333 1240.67 -191 1278 c 0
 -166.333 1292.67 -145.667 1300 -129 1300 c 0
-324 993 m 4
 -324 999.22 -309.333 1021.89 -280 1061 c 5
 -268.667 1074.33 -260.667 1081.33 -256 1082 c 4
 -248 1082 -223.667 1065.33 -183 1032 c 6
 -178 1028 l 6
 -166 1018.67 -159.333 1010 -158 1002 c 5
 -158 988.67 -171.667 966.67 -199 936 c 4
 -211.667 921.33 -219.667 914 -223 914 c 4
 -228.333 914 -249.667 928.33 -287 957 c 4
 -308.867 973.4 -320.533 983.07 -322 986 c 4
 -323.333 988 -324 990.33 -324 993 c 4
EndSplineSet
Validated: 1
EndChar

StartChar: tehtaO_tehtaI.shift3
Encoding: 15 -1 15
Width: 0
VWidth: 1000
Flags: HW
LayerCount: 2
Fore
SplineSet
-271 1300 m 0
 -239 1300 -223 1279 -223 1237 c 0
 -223 1201 -243 1166.33 -283 1133 c 0
 -306.333 1112.33 -322.667 1102 -332 1102 c 0
 -338.667 1102 -342 1104.67 -342 1110 c 0
 -342 1112.67 -335.667 1120 -323 1132 c 0
 -308.333 1147.33 -301 1162 -301 1176 c 0
 -301 1194 -307 1206.67 -319 1214 c 0
 -322.333 1216 -325.333 1217 -328 1217 c 0
 -356 1217 -425.333 1154 -536 1028 c 2
 -563 997 l 2
 -599 955 -623 934 -635 934 c 0
 -640.333 934 -643 936 -643 940 c 0
 -643 951.333 -616 990 -562 1056 c 0
 -472.667 1166.67 -396.333 1240.67 -333 1278 c 0
 -308.333 1292.67 -287.667 1300 -271 1300 c 0
-463 993 m 0
 -463 999.22 -448.333 1021.89 -419 1061 c 1
 -407.667 1074.33 -399.667 1081.33 -395 1082 c 0
 -387 1082 -362.667 1065.33 -322 1032 c 2
 -317 1028 l 2
 -305 1018.67 -298.333 1010 -297 1002 c 1
 -297 988.67 -310.667 966.67 -338 936 c 0
 -350.667 921.33 -358.667 914 -362 914 c 0
 -367.333 914 -388.667 928.33 -426 957 c 0
 -447.867 973.4 -459.533 983.07 -461 986 c 0
 -462.333 988 -463 990.33 -463 993 c 0
EndSplineSet
Validated: 1
EndChar

StartChar: tehtaO_tehtaI.shift4
Encoding: 16 -1 16
Width: 0
VWidth: 1000
Flags: HW
LayerCount: 2
Fore
SplineSet
-408 1300 m 0
 -376 1300 -360 1279 -360 1237 c 0
 -360 1201 -380 1166.33 -420 1133 c 0
 -443.333 1112.33 -459.667 1102 -469 1102 c 0
 -475.667 1102 -479 1104.67 -479 1110 c 0
 -479 1112.67 -472.667 1120 -460 1132 c 0
 -445.333 1147.33 -438 1162 -438 1176 c 0
 -438 1194 -444 1206.67 -456 1214 c 0
 -459.333 1216 -462.333 1217 -465 1217 c 0
 -493 1217 -562.333 1154 -673 1028 c 2
 -700 997 l 2
 -736 955 -760 934 -772 934 c 0
 -777.333 934 -780 936 -780 940 c 0
 -780 951.333 -753 990 -699 1056 c 0
 -609.667 1166.67 -533.333 1240.67 -470 1278 c 0
 -445.333 1292.67 -424.667 1300 -408 1300 c 0
-610 987 m 0
 -610 993.22 -595.333 1015.89 -566 1055 c 1
 -554.667 1068.33 -546.667 1075.33 -542 1076 c 0
 -534 1076 -509.667 1059.33 -469 1026 c 2
 -464 1022 l 2
 -452 1012.67 -445.333 1004 -444 996 c 1
 -444 982.67 -457.667 960.67 -485 930 c 0
 -497.667 915.33 -505.667 908 -509 908 c 0
 -514.333 908 -535.667 922.33 -573 951 c 0
 -594.867 967.4 -606.533 977.07 -608 980 c 0
 -609.333 982 -610 984.33 -610 987 c 0
EndSplineSet
Validated: 1
EndChar

StartChar: tehtaU_tehtaI.shift1
Encoding: 17 -1 17
Width: 0
VWidth: 1000
Flags: HW
LayerCount: 2
Fore
SplineSet
-402 1147 m 0
 -402 1153.22 -387.333 1175.89 -358 1215 c 1
 -346.667 1228.33 -338.667 1235.33 -334 1236 c 0
 -326 1236 -301.667 1219.33 -261 1186 c 2
 -256 1182 l 2
 -244 1172.67 -237.333 1164 -236 1156 c 1
 -236 1142.67 -249.667 1120.67 -277 1090 c 0
 -289.667 1075.33 -297.667 1068 -301 1068 c 0
 -306.333 1068 -327.667 1082.33 -365 1111 c 0
 -386.867 1127.4 -398.533 1137.07 -400 1140 c 0
 -401.333 1142 -402 1144.33 -402 1147 c 0
-202.105 1228.87 m 0
 -204.772 1228.87 -206.105 1230.2 -206.105 1232.87 c 0
 -206.105 1253.1 -127.473 1321.69 -82 1325 c 1
 -41.3333 1325 -21 1304.67 -21 1264 c 0
 -21 1138.3 -328.731 930 -358 930 c 0
 -361.333 930 -363 931.333 -363 934 c 0
 -363 958.907 -107 1115.76 -107 1210 c 0
 -107 1241.33 -117 1258 -137 1260 c 1
 -160.421 1260 -194.546 1228.87 -202.105 1228.87 c 0
EndSplineSet
Validated: 1
EndChar

StartChar: tehtaN.widelow
Encoding: 22 -1 21
Width: 0
VWidth: 1000
Flags: HW
LayerCount: 2
Fore
SplineSet
-819 856 m 0
 -688 856 -577 840 -387 840 c 0
 -305 840 -207 842 -86 852 c 1
 -127 756 -273 750 -414 750 c 0
 -553 750 -686 764 -854 764 c 0
 -940 764 -1034 762 -1143 750 c 1
 -1094 846 -962 856 -819 856 c 0
EndSplineSet
Validated: 1
EndChar

StartChar: tehtaN.narrowlow
Encoding: 21 -1 22
Width: 0
VWidth: 1000
Flags: HW
LayerCount: 2
Fore
SplineSet
-713 762 m 1
 -672 832 -595 852 -489 852 c 0
 -417 852 -387 844 -303 844 c 0
 -244 844 -172 848 -90 856 c 1
 -123 774 -198 758 -313 758 c 0
 -391 758 -487 764 -598 764 c 0
 -635 764 -672 764 -713 762 c 1
EndSplineSet
Validated: 1
EndChar

StartChar: tehtaW.combshift1
Encoding: 23 -1 23
Width: 0
VWidth: 1000
Flags: HW
LayerCount: 2
Back
SplineSet
-172 321.999 m 4
 -170.667 419.999 -170.334 471.666 -171 476.999 c 4
 -173.667 511.666 -185 535.666 -205 548.999 c 4
 -211.667 552.999 -219.667 556.999 -229 560.999 c 5
 -247 559.666 -243 576.666 -217 611.999 c 4
 -177.581 666.748 -138.248 674.082 -99 633.999 c 4
 -89 623.332 -83 614.666 -81 607.999 c 4
 -76.334 589.999 -75 548.332 -77 482.999 c 5
 -69.667 304.332 -70 181.666 -78 114.999 c 4
 -78.667 113.666 -79 112.333 -79 110.999 c 4
 -86.334 67.666 -130.334 20.333 -211 -31.001 c 5
 -216.334 -33.001 -219 -31.001 -219 -25.001 c 5
 -194.334 22.999 -180 70.666 -176 117.999 c 4
 -174.667 136.666 -173.334 204.666 -172 321.999 c 4
-260 1083 m 2
 -292.667 1083 -309 1105 -309 1149 c 0
 -309 1206.33 -287.333 1250.67 -244 1282 c 1
 -249.333 1266 -252 1251.67 -252 1239 c 0
 -252 1219.67 -239 1210 -213 1210 c 1
 -99 1217 l 1
 -98 1217 l 2
 -48.6667 1217 -17.6667 1205.33 -5 1182 c 0
 2.33333 1168 6 1147.33 6 1120 c 0
 6 1070 -11 1011.33 -45 944 c 0
 -71 891.333 -97 858 -123 844 c 1
 -96.3333 880.667 -76 924.333 -62 975 c 0
 -56 997 -53 1016 -53 1032 c 0
 -53 1068.67 -77.6667 1087 -127 1087 c 1
 -256 1083 l 1
 -260 1083 l 2
-364 956 m 0
 -364 1054 -296 1443 -195 1443 c 0
 -166 1443 -133 1402 -133 1351 c 0
 -133 1317 -158 1231 -180 1231 c 0
 -183 1231 -186 1233 -186 1238 c 0
 -186 1248 -177 1268 -177 1287 c 0
 -177 1317 -197 1336 -218 1337 c 0
 -236 1337 -264 1312 -313 1067 c 2
 -321 1027 l 2
 -323 1016 -325 1006 -327 998 c 1
 -281 1056 l 1
 -191 1167 -115 1241 -52 1278 c 0
 -27 1293 -7 1300 10 1300 c 0
 42 1300 58 1279 58 1237 c 0
 58 1201 38 1166 -2 1133 c 1
 -25 1112 -42 1102 -51 1102 c 0
 -58 1102 -61 1105 -61 1110 c 0
 -61 1113 -55 1120 -42 1132 c 0
 -27 1147 -20 1162 -20 1176 c 0
 -20 1194 -26 1207 -38 1214 c 0
 -41 1216 -44 1217 -47 1217 c 0
 -75 1217 -144 1154 -255 1028 c 2
 -282 997 l 2
 -318 955 -342 934 -354 934 c 0
 -358 934 -360 935 -361 937 c 0
 -364 940 -364 946 -364 956 c 0
-190 1164 m 0
 -190 1157.78 -204.667 1135.11 -234 1096 c 1
 -245.333 1082.67 -253.333 1075.67 -258 1075 c 0
 -266 1075 -290.333 1091.67 -331 1125 c 2
 -336 1129 l 2
 -348 1138.33 -354.667 1147 -356 1155 c 1
 -356 1168.33 -342.333 1190.33 -315 1221 c 0
 -302.333 1235.67 -294.333 1243 -291 1243 c 0
 -285.667 1243 -264.333 1228.67 -227 1200 c 0
 -205.133 1183.6 -193.467 1173.93 -192 1171 c 0
 -190.667 1169 -190 1166.67 -190 1164 c 0
62 1164 m 0
 62 1157.78 47.3333 1135.11 18 1096 c 1
 6.66667 1082.67 -1.33333 1075.67 -6 1075 c 0
 -14 1075 -38.3333 1091.67 -79 1125 c 2
 -84 1129 l 2
 -96 1138.33 -102.667 1147 -104 1155 c 1
 -104 1168.33 -90.3333 1190.33 -63 1221 c 0
 -50.3333 1235.67 -42.3333 1243 -39 1243 c 0
 -33.6667 1243 -12.3333 1228.67 25 1200 c 0
 46.8665 1183.6 58.5332 1173.93 60 1171 c 0
 61.3333 1169 62 1166.67 62 1164 c 0
-51 981 m 0
 -51 974.78 -65.6667 952.113 -95 913 c 1
 -106.333 899.667 -114.333 892.667 -119 892 c 0
 -127 892 -151.333 908.667 -192 942 c 2
 -197 946 l 2
 -209 955.333 -215.667 964 -217 972 c 1
 -217 985.333 -203.333 1007.33 -176 1038 c 0
 -163.333 1052.67 -155.333 1060 -152 1060 c 0
 -146.667 1060 -125.333 1045.67 -88 1017 c 0
 -66.1335 1000.6 -54.4668 990.934 -53 988 c 0
 -51.6667 986 -51 983.667 -51 981 c 0
EndSplineSet
Fore
SplineSet
2 1383 m 2
 -31 1383 -47 1405 -47 1449 c 0
 -47 1506 -25 1551 18 1582 c 1
 13 1566 10 1552 10 1539 c 0
 10 1520 23 1510 49 1510 c 1
 85 1517 l 1
 86 1517 l 2
 123 1517 135 1505 148 1482 c 0
 155 1468 159 1447 159 1420 c 0
 159 1370 142 1311 108 1244 c 0
 82 1191 56 1158 30 1144 c 1
 57 1181 77 1224 91 1275 c 0
 97 1297 100 1316 100 1332 c 0
 100 1369 85 1387 42 1387 c 1
 6 1383 l 1
 2 1383 l 2
EndSplineSet
Validated: 1
EndChar

StartChar: tehtaW.combshift2
Encoding: 24 -1 24
Width: 0
VWidth: 1000
Flags: HW
LayerCount: 2
Back
SplineSet
-225 1032 m 0
 -225 1070.67 -262.667 1090 -338 1090 c 1
 -380.667 1086 -425.667 1083.67 -473 1083 c 0
 -505.667 1083 -522 1105 -522 1149 c 0
 -522 1206.33 -500.333 1250.67 -457 1282 c 1
 -462.333 1266 -465 1251.67 -465 1239 c 0
 -465 1219.67 -452 1210 -426 1210 c 1
 -308 1217 l 1
 -301 1217 l 2
 -241 1217 -202.667 1208 -186 1190 c 0
 -172.667 1175.33 -166 1152 -166 1120 c 0
 -166 1070.67 -183 1012 -217 944 c 0
 -243.667 891.333 -269.667 858 -295 844 c 1
 -252.333 910.667 -229 969.667 -225 1021 c 0
 -225 1027 -225 1027 -225 1032 c 0
-503 956 m 0
 -503 1055 -435 1443 -334 1443 c 0
 -305 1443 -272 1402 -272 1351 c 0
 -272 1317 -297 1231 -319 1231 c 0
 -322 1231 -325 1233 -325 1238 c 0
 -325 1248 -316 1268 -316 1288 c 0
 -316 1317 -337 1336 -357 1337 c 1
 -358 1337 l 2
 -375 1337 -403 1312 -452 1067 c 2
 -460 1027 l 2
 -462 1016 -464 1006 -467 997 c 1
 -420 1056 l 1
 -330 1167 -254 1241 -191 1278 c 0
 -166 1293 -146 1300 -129 1300 c 0
 -97 1300 -81 1279 -81 1237 c 0
 -81 1201 -101 1166 -141 1133 c 1
 -164 1112 -181 1102 -190 1102 c 0
 -197 1102 -200 1105 -200 1110 c 0
 -200 1113 -194 1120 -181 1132 c 0
 -166 1147 -159 1162 -159 1176 c 0
 -159 1194 -165 1207 -177 1214 c 0
 -180 1216 -183 1217 -186 1217 c 0
 -214 1217 -283 1154 -394 1028 c 2
 -421 997 l 2
 -457 955 -481 934 -493 934 c 0
 -497 934 -499 935 -500 937 c 0
 -503 940 -503 946 -503 956 c 0
-382 1164 m 0
 -382 1157.78 -396.667 1135.11 -426 1096 c 1
 -437.333 1082.67 -445.333 1075.67 -450 1075 c 0
 -458 1075 -482.333 1091.67 -523 1125 c 2
 -528 1129 l 2
 -540 1138.33 -546.667 1147 -548 1155 c 1
 -548 1168.33 -534.333 1190.33 -507 1221 c 0
 -494.333 1235.67 -486.333 1243 -483 1243 c 0
 -477.667 1243 -456.333 1228.67 -419 1200 c 0
 -397.133 1183.6 -385.467 1173.93 -384 1171 c 0
 -382.667 1169 -382 1166.67 -382 1164 c 0
-130 1164 m 0
 -130 1157.78 -144.667 1135.11 -174 1096 c 1
 -185.333 1082.67 -193.333 1075.67 -198 1075 c 0
 -206 1075 -230.333 1091.67 -271 1125 c 2
 -276 1129 l 2
 -288 1138.33 -294.667 1147 -296 1155 c 1
 -296 1168.33 -282.333 1190.33 -255 1221 c 0
 -242.333 1235.67 -234.333 1243 -231 1243 c 0
 -225.667 1243 -204.333 1228.67 -167 1200 c 0
 -145.133 1183.6 -133.467 1173.93 -132 1171 c 0
 -130.667 1169 -130 1166.67 -130 1164 c 0
-243 981 m 0
 -243 974.78 -257.667 952.113 -287 913 c 1
 -298.333 899.667 -306.333 892.667 -311 892 c 0
 -319 892 -343.333 908.667 -384 942 c 2
 -389 946 l 2
 -401 955.333 -407.667 964 -409 972 c 1
 -409 985.333 -395.333 1007.33 -368 1038 c 0
 -355.333 1052.67 -347.333 1060 -344 1060 c 0
 -338.667 1060 -317.333 1045.67 -280 1017 c 0
 -258.133 1000.6 -246.467 990.934 -245 988 c 0
 -243.667 986 -243 983.667 -243 981 c 0
-683 1274 m 0
 -643.553 1274 -621.22 1228.33 -616 1137 c 1
 -618 593 l 1
 -616 477 l 1
 -506.835 589 -402.835 645 -304 645 c 0
 -194 645 -121 595.667 -85 497 c 0
 -70.333 457.667 -63 412 -63 360 c 0
 -63 265.333 -87 179 -135 101 c 0
 -189.154 13 -254.487 -31 -331 -31 c 0
 -380.333 -31 -421 -11.333 -453 28 c 0
 -461.667 38.667 -466 46.333 -466 51 c 0
 -466 59.667 -451.333 74.667 -422 96 c 0
 -402.667 110 -388.667 117 -380 117 c 0
 -376 117 -366 109.333 -350 94 c 0
 -323.333 68 -296.333 55 -269 55 c 0
 -214.333 55 -177.667 99.333 -159 188 c 0
 -152.333 221.333 -149 257.667 -149 297 c 0
 -149 381 -177.667 447 -235 495 c 0
 -277 529.667 -326.667 547 -384 547 c 0
 -462.667 547 -528.667 520 -582 466 c 0
 -604.667 443.333 -616 426.667 -616 416 c 1
 -609 133 l 1
 -609 121 -609.667 111.333 -611 104 c 0
 -617.667 60.667 -661.667 13 -743 -39 c 1
 -748.333 -39 -751 -37 -751 -33 c 1
 -726.333 15.667 -712 63 -708 109 c 0
 -706.667 128.333 -705.333 197.667 -704 317 c 1
 -714 713 l 1
 -712 987 -714 1130.33 -720 1143 c 0
 -724 1153 -735 1162 -753 1170 c 0
 -763.667 1174 -769 1178.67 -769 1184 c 0
 -769 1194.67 -759.333 1212 -740 1236 c 0
 -719.333 1261.33 -700.333 1274 -683 1274 c 0
EndSplineSet
Fore
SplineSet
-170 1383 m 2
 -203 1383 -219 1405 -219 1449 c 0
 -219 1506 -197 1551 -154 1582 c 1
 -159 1566 -162 1552 -162 1539 c 0
 -162 1520 -149 1510 -123 1510 c 1
 -74 1517 l 1
 -73 1517 l 2
 -24 1517 7 1505 20 1482 c 0
 27 1468 31 1447 31 1420 c 0
 31 1370 14 1311 -20 1244 c 0
 -46 1191 -72 1158 -98 1144 c 1
 -71 1181 -51 1224 -37 1275 c 0
 -31 1297 -28 1316 -28 1332 c 0
 -28 1369 -53 1387 -102 1387 c 1
 -166 1383 l 1
 -170 1383 l 2
EndSplineSet
Validated: 1
EndChar

StartChar: tehtaW.combshift3
Encoding: 25 -1 25
Width: 0
VWidth: 1000
Flags: HW
LayerCount: 2
Back
SplineSet
-303 1032 m 0
 -303 1070.67 -340.667 1090 -416 1090 c 1
 -458.667 1086 -503.667 1083.67 -551 1083 c 0
 -583.667 1083 -600 1105 -600 1149 c 0
 -600 1206.33 -578.333 1250.67 -535 1282 c 1
 -540.333 1266 -543 1251.67 -543 1239 c 0
 -543 1219.67 -530 1210 -504 1210 c 1
 -386 1217 l 1
 -379 1217 l 2
 -319 1217 -280.667 1208 -264 1190 c 0
 -250.667 1175.33 -244 1152 -244 1120 c 0
 -244 1070.67 -261 1012 -295 944 c 0
 -321.667 891.333 -347.667 858 -373 844 c 1
 -330.333 910.667 -307 969.667 -303 1021 c 0
 -303 1027 -303 1027 -303 1032 c 0
-645 955 m 0
 -645 1054 -577 1442 -476 1442 c 0
 -447 1442 -414 1402 -414 1351 c 0
 -414 1317 -438 1231 -461 1231 c 0
 -464 1231 -467 1233 -467 1237 c 0
 -467 1247 -458 1267 -458 1287 c 0
 -458 1316 -478 1336 -499 1337 c 0
 -517 1337 -545 1312 -594 1067 c 2
 -602 1027 l 2
 -604 1016 -606 1006 -608 998 c 1
 -562 1056 l 1
 -472 1167 -396 1241 -333 1278 c 0
 -308 1293 -288 1300 -271 1300 c 0
 -239 1300 -223 1279 -223 1237 c 0
 -223 1201 -243 1166 -283 1133 c 1
 -306 1112 -323 1102 -332 1102 c 0
 -339 1102 -342 1105 -342 1110 c 0
 -342 1113 -336 1120 -323 1132 c 0
 -308 1147 -301 1162 -301 1176 c 0
 -301 1194 -307 1207 -319 1214 c 0
 -322 1216 -325 1217 -328 1217 c 0
 -356 1217 -425 1154 -536 1028 c 2
 -563 997 l 2
 -599 955 -623 934 -635 934 c 0
 -636 934 -636 934 -637 934 c 0
 -638 934 l 0
 -643 934 -645 942 -645 955 c 0
-478 1164 m 0
 -478 1157.78 -492.667 1135.11 -522 1096 c 1
 -533.333 1082.67 -541.333 1075.67 -546 1075 c 0
 -554 1075 -578.333 1091.67 -619 1125 c 2
 -624 1129 l 2
 -636 1138.33 -642.667 1147 -644 1155 c 1
 -644 1168.33 -630.333 1190.33 -603 1221 c 0
 -590.333 1235.67 -582.333 1243 -579 1243 c 0
 -573.667 1243 -552.333 1228.67 -515 1200 c 0
 -493.133 1183.6 -481.467 1173.93 -480 1171 c 0
 -478.667 1169 -478 1166.67 -478 1164 c 0
-226 1164 m 0
 -226 1157.78 -240.667 1135.11 -270 1096 c 1
 -281.333 1082.67 -289.333 1075.67 -294 1075 c 0
 -302 1075 -326.333 1091.67 -367 1125 c 2
 -372 1129 l 2
 -384 1138.33 -390.667 1147 -392 1155 c 1
 -392 1168.33 -378.333 1190.33 -351 1221 c 0
 -338.333 1235.67 -330.333 1243 -327 1243 c 0
 -321.667 1243 -300.333 1228.67 -263 1200 c 0
 -241.133 1183.6 -229.467 1173.93 -228 1171 c 0
 -226.667 1169 -226 1166.67 -226 1164 c 0
-339 981 m 0
 -339 974.78 -353.667 952.113 -383 913 c 1
 -394.333 899.667 -402.333 892.667 -407 892 c 0
 -415 892 -439.333 908.667 -480 942 c 2
 -485 946 l 2
 -497 955.333 -503.667 964 -505 972 c 1
 -505 985.333 -491.333 1007.33 -464 1038 c 0
 -451.333 1052.67 -443.333 1060 -440 1060 c 0
 -434.667 1060 -413.333 1045.67 -376 1017 c 0
 -354.133 1000.6 -342.467 990.934 -341 988 c 0
 -339.667 986 -339 983.667 -339 981 c 0
-181 274 m 1
 -217.667 189.333 -247.333 130.667 -270 98 c 0
 -328 16 -405.667 -25 -503 -25 c 0
 -569.667 -25 -628.667 1.66699 -680 55 c 0
 -739.333 115.667 -769 192.333 -769 285 c 0
 -769 385.667 -729.667 476 -651 556 c 0
 -616.333 591.333 -577.333 620.333 -534 643 c 1
 -516.667 651 -502.333 655 -491 655 c 0
 -467.667 655 -441 643.333 -411 620 c 0
 -390.333 604 -380 590 -380 578 c 0
 -380 560 -397.333 537.667 -432 511 c 0
 -445.333 501 -454 496 -458 496 c 128
 -462 496 -473.667 504.333 -493 521 c 0
 -519.667 545 -543.333 557 -564 557 c 0
 -604 557 -636 529.667 -660 475 c 0
 -678 435.667 -687 392 -687 344 c 0
 -687 257.333 -659.333 189 -604 139 c 0
 -560.667 99.667 -506.333 80 -441 80 c 0
 -369.667 80 -305.333 133 -248 239 c 0
 -218 295 -195.667 353.333 -181 414 c 1
 -181 785.333 -175.667 1013.33 -165 1098 c 1
 -155.667 1162.67 -135.667 1210.67 -105 1242 c 0
 -87 1260.67 -67.333 1270 -46 1270 c 0
 -25.333 1270 -8.33301 1251 5 1213 c 0
 10.333 1198.33 13 1186 13 1176 c 0
 13 1159.33 7.66699 1150.33 -3 1149 c 2
 -18 1149 l 2
 -56 1149 -77 1056 -81 870 c 1
 -82.333 630.667 -81 381 -77 121 c 0
 -76.333 87 -64.333 50.333 -41 11 c 0
 -25.29 -14.4355 -20.957 -32.4355 -28 -43 c 1
 -34 -57.667 -57 -48 -97 -14 c 0
 -134.333 17.333 -158 56 -168 102 c 0
 -174.667 133.333 -179 190.667 -181 274 c 1
EndSplineSet
Fore
SplineSet
-308 1383 m 2
 -341 1383 -357 1405 -357 1449 c 0
 -357 1506 -335 1551 -292 1582 c 1
 -297 1566 -300 1552 -300 1539 c 0
 -300 1520 -287 1510 -261 1510 c 1
 -212 1517 l 1
 -211 1517 l 2
 -162 1517 -131 1505 -118 1482 c 0
 -111 1468 -107 1447 -107 1420 c 0
 -107 1370 -124 1311 -158 1244 c 0
 -184 1191 -210 1158 -236 1144 c 1
 -209 1181 -189 1224 -175 1275 c 0
 -169 1297 -166 1316 -166 1332 c 0
 -166 1369 -191 1387 -240 1387 c 1
 -304 1383 l 1
 -308 1383 l 2
EndSplineSet
Validated: 1
EndChar

StartChar: tehtaW.combshift4
Encoding: 26 -1 26
Width: 0
VWidth: 1000
Flags: HW
LayerCount: 2
Back
SplineSet
-442 1032 m 0
 -442 1070.67 -479.667 1090 -555 1090 c 1
 -597.667 1086 -642.667 1083.67 -690 1083 c 0
 -722.667 1083 -739 1105 -739 1149 c 0
 -739 1206.33 -717.333 1250.67 -674 1282 c 1
 -679.333 1266 -682 1251.67 -682 1239 c 0
 -682 1219.67 -669 1210 -643 1210 c 1
 -525 1217 l 1
 -518 1217 l 2
 -458 1217 -419.667 1208 -403 1190 c 0
 -389.667 1175.33 -383 1152 -383 1120 c 0
 -383 1070.67 -400 1012 -434 944 c 0
 -460.667 891.333 -486.667 858 -512 844 c 1
 -469.333 910.667 -446 969.667 -442 1021 c 0
 -442 1027 -442 1027 -442 1032 c 0
-782 955 m 0
 -782 1054 -714 1442 -613 1442 c 0
 -584 1442 -551 1402 -551 1351 c 0
 -551 1317 -575 1231 -598 1231 c 0
 -601 1231 -604 1233 -604 1237 c 0
 -604 1247 -595 1267 -595 1287 c 0
 -595 1316 -615 1336 -636 1337 c 0
 -654 1337 -682 1312 -731 1067 c 2
 -739 1027 l 2
 -741 1016 -743 1006 -745 998 c 1
 -699 1056 l 1
 -609 1167 -533 1241 -470 1278 c 0
 -445 1293 -425 1300 -408 1300 c 0
 -376 1300 -360 1279 -360 1237 c 0
 -360 1201 -380 1166 -420 1133 c 1
 -443 1112 -460 1102 -469 1102 c 0
 -476 1102 -479 1105 -479 1110 c 0
 -479 1113 -473 1120 -460 1132 c 0
 -445 1147 -438 1162 -438 1176 c 0
 -438 1194 -444 1207 -456 1214 c 0
 -459 1216 -462 1217 -465 1217 c 0
 -493 1217 -562 1154 -673 1028 c 2
 -700 997 l 2
 -736 955 -760 934 -772 934 c 0
 -773 934 -775 934 -776 934 c 0
 -781 935 -782 943 -782 955 c 0
-610 1164 m 0
 -610 1157.78 -624.667 1135.11 -654 1096 c 1
 -665.333 1082.67 -673.333 1075.67 -678 1075 c 0
 -686 1075 -710.333 1091.67 -751 1125 c 2
 -756 1129 l 2
 -768 1138.33 -774.667 1147 -776 1155 c 1
 -776 1168.33 -762.333 1190.33 -735 1221 c 0
 -722.333 1235.67 -714.333 1243 -711 1243 c 0
 -705.667 1243 -684.333 1228.67 -647 1200 c 0
 -625.133 1183.6 -613.467 1173.93 -612 1171 c 0
 -610.667 1169 -610 1166.67 -610 1164 c 0
-358 1164 m 0
 -358 1157.78 -372.667 1135.11 -402 1096 c 1
 -413.333 1082.67 -421.333 1075.67 -426 1075 c 0
 -434 1075 -458.333 1091.67 -499 1125 c 2
 -504 1129 l 2
 -516 1138.33 -522.667 1147 -524 1155 c 1
 -524 1168.33 -510.333 1190.33 -483 1221 c 0
 -470.333 1235.67 -462.333 1243 -459 1243 c 0
 -453.667 1243 -432.333 1228.67 -395 1200 c 0
 -373.133 1183.6 -361.467 1173.93 -360 1171 c 0
 -358.667 1169 -358 1166.67 -358 1164 c 0
-471 981 m 0
 -471 974.78 -485.667 952.113 -515 913 c 1
 -526.333 899.667 -534.333 892.667 -539 892 c 0
 -547 892 -571.333 908.667 -612 942 c 2
 -617 946 l 2
 -629 955.333 -635.667 964 -637 972 c 1
 -637 985.333 -623.333 1007.33 -596 1038 c 0
 -583.333 1052.67 -575.333 1060 -572 1060 c 0
 -566.667 1060 -545.333 1045.67 -508 1017 c 0
 -486.133 1000.6 -474.467 990.934 -473 988 c 0
 -471.667 986 -471 983.667 -471 981 c 0
-79 870 m 1
 -69 121 l 1
 -69 87 -57 50 -33 10 c 0
 -18.6328 -13.9395 -14.2998 -31.6064 -20 -43 c 0
 -27.333 -56.333 -50.333 -46.667 -89 -14 c 0
 -129 19.333 -154 62 -164 114 c 0
 -168 138.667 -171.667 185.333 -175 254 c 1
 -223.667 158.667 -271.333 89.667 -318 47 c 0
 -370.667 -1 -427 -25 -487 -25 c 0
 -575 -25 -643.667 25.667 -693 127 c 1
 -742.333 69 -781.333 30.667 -810 12 c 0
 -848.667 -14 -894.333 -27 -947 -27 c 0
 -1013 -27 -1070.33 5.33301 -1119 70 c 0
 -1166.33 133.333 -1190.33 205.667 -1191 287 c 0
 -1191 361 -1166.33 435.333 -1117 510 c 0
 -1091 550 -1063.67 580 -1035 600 c 1
 -985.134 636.667 -949.134 655 -927 655 c 0
 -911.667 655 -889.667 646.667 -861 630 c 0
 -831 612 -816 594.667 -816 578 c 0
 -816 562 -832.667 540.333 -866 513 c 0
 -879.333 501.667 -888 496 -892 496 c 128
 -896 496 -907.667 504.667 -927 522 c 0
 -954.333 546.667 -979 559 -1001 559 c 0
 -1041 559 -1071 523.667 -1091 453 c 0
 -1101.67 414.333 -1107 374.667 -1107 334 c 0
 -1107 248 -1080.33 181.333 -1027 134 c 0
 -986.333 98 -936 80 -876 80 c 0
 -826 80 -783 102.333 -747 147 c 0
 -731.667 166.333 -724 180.667 -724 190 c 1
 -730.458 210.047 -733.791 233.38 -734 260 c 0
 -734 346.667 -705.667 432.333 -649 517 c 0
 -604.333 585 -557 628.333 -507 647 c 0
 -493.667 652.333 -480.667 655 -468 655 c 0
 -443.333 655 -417 643 -389 619 c 0
 -369.667 603 -360 588.333 -360 575 c 0
 -360 561 -375.667 540.667 -407 514 c 0
 -421 502 -430.333 496 -435 496 c 128
 -439.667 496 -452 505 -472 523 c 0
 -498 547 -520 559 -538 559 c 0
 -568 559 -594.333 533.667 -617 483 c 0
 -637.667 437.667 -648 388.667 -648 336 c 0
 -648 244.667 -619.333 175.333 -562 128 c 0
 -523.333 96 -475.667 80 -419 80 c 0
 -350.333 80 -289 130.333 -235 231 c 0
 -208.333 280.333 -187.667 333.667 -173 391 c 1
 -176.333 595.667 -174.667 791.333 -168 978 c 0
 -166 1034 -163.667 1074 -161 1098 c 0
 -153.667 1160.67 -135.333 1208.33 -106 1241 c 0
 -88 1260.33 -68 1270 -46 1270 c 0
 -25.333 1270 -8.33301 1251 5 1213 c 0
 10.333 1198.33 13 1186 13 1176 c 0
 13 1159.33 7.66699 1150.33 -3 1149 c 2
 -18 1149 l 2
 -56.667 1149 -77 1056 -79 870 c 1
EndSplineSet
Fore
SplineSet
-412 1383 m 2
 -445 1383 -461 1405 -461 1449 c 0
 -461 1506 -439 1551 -396 1582 c 1
 -401 1566 -404 1552 -404 1539 c 0
 -404 1520 -391 1510 -365 1510 c 1
 -302 1517 l 1
 -301 1517 l 2
 -252 1517 -235 1505 -222 1482 c 0
 -215 1468 -211 1447 -211 1420 c 0
 -211 1370 -228 1311 -262 1244 c 0
 -288 1191 -314 1158 -340 1144 c 1
 -313 1181 -293 1224 -279 1275 c 0
 -273 1297 -270 1316 -270 1332 c 0
 -270 1369 -295 1387 -344 1387 c 1
 -408 1383 l 1
 -412 1383 l 2
EndSplineSet
Validated: 1
EndChar

StartChar: tehtaO_tehtaO.shift1
Encoding: 27 -1 27
Width: 0
VWidth: 1000
Flags: HW
LayerCount: 2
Fore
SplineSet
-364 956 m 0
 -364 1054 -296 1443 -195 1443 c 0
 -166 1443 -133 1402 -133 1351 c 0
 -133 1317 -158 1231 -180 1231 c 0
 -183 1231 -186 1233 -186 1238 c 0
 -186 1248 -177 1268 -177 1287 c 0
 -177 1317 -197 1336 -218 1337 c 0
 -236 1337 -264 1312 -313 1067 c 2
 -321 1027 l 2
 -323 1016 -325 1006 -327 998 c 1
 -281 1056 l 1
 -191 1167 -115 1241 -52 1278 c 0
 -27 1293 -7 1300 10 1300 c 0
 42 1300 58 1279 58 1237 c 0
 58 1201 38 1166 -2 1133 c 1
 -25 1112 -42 1102 -51 1102 c 0
 -58 1102 -61 1105 -61 1110 c 0
 -61 1113 -55 1120 -42 1132 c 0
 -27 1147 -20 1162 -20 1176 c 0
 -20 1194 -26 1207 -38 1214 c 0
 -41 1216 -44 1217 -47 1217 c 0
 -75 1217 -144 1154 -255 1028 c 2
 -282 997 l 2
 -318 955 -342 934 -354 934 c 0
 -358 934 -360 935 -361 937 c 0
 -364 940 -364 946 -364 956 c 0
EndSplineSet
Validated: 1
EndChar

StartChar: tehtaO_tehtaO.shift2
Encoding: 28 -1 28
Width: 0
VWidth: 1000
Flags: HW
LayerCount: 2
Fore
SplineSet
-503 956 m 4
 -503 1055 -435 1443 -334 1443 c 4
 -305 1443 -272 1402 -272 1351 c 4
 -272 1317 -297 1231 -319 1231 c 4
 -322 1231 -325 1233 -325 1238 c 4
 -325 1248 -316 1268 -316 1288 c 4
 -316 1317 -337 1336 -357 1337 c 5
 -358 1337 l 6
 -375 1337 -403 1312 -452 1067 c 6
 -460 1027 l 6
 -462 1016 -464 1006 -467 997 c 5
 -420 1056 l 5
 -330 1167 -254 1241 -191 1278 c 4
 -166 1293 -146 1300 -129 1300 c 4
 -97 1300 -81 1279 -81 1237 c 4
 -81 1201 -101 1166 -141 1133 c 5
 -164 1112 -181 1102 -190 1102 c 4
 -197 1102 -200 1105 -200 1110 c 4
 -200 1113 -194 1120 -181 1132 c 4
 -166 1147 -159 1162 -159 1176 c 4
 -159 1194 -165 1207 -177 1214 c 4
 -180 1216 -183 1217 -186 1217 c 4
 -214 1217 -283 1154 -394 1028 c 6
 -421 997 l 6
 -457 955 -481 934 -493 934 c 4
 -497 934 -499 935 -500 937 c 4
 -503 940 -503 946 -503 956 c 4
EndSplineSet
Validated: 1
EndChar

StartChar: tehtaO_tehtaO.shift3
Encoding: 29 -1 29
Width: 0
VWidth: 1000
Flags: HW
LayerCount: 2
Fore
SplineSet
-645 955 m 0
 -645 1054 -577 1442 -476 1442 c 0
 -447 1442 -414 1402 -414 1351 c 0
 -414 1317 -438 1231 -461 1231 c 0
 -464 1231 -467 1233 -467 1237 c 0
 -467 1247 -458 1267 -458 1287 c 0
 -458 1316 -478 1336 -499 1337 c 0
 -517 1337 -545 1312 -594 1067 c 2
 -602 1027 l 2
 -604 1016 -606 1006 -608 998 c 1
 -562 1056 l 1
 -472 1167 -396 1241 -333 1278 c 0
 -308 1293 -288 1300 -271 1300 c 0
 -239 1300 -223 1279 -223 1237 c 0
 -223 1201 -243 1166 -283 1133 c 1
 -306 1112 -323 1102 -332 1102 c 0
 -339 1102 -342 1105 -342 1110 c 0
 -342 1113 -336 1120 -323 1132 c 0
 -308 1147 -301 1162 -301 1176 c 0
 -301 1194 -307 1207 -319 1214 c 0
 -322 1216 -325 1217 -328 1217 c 0
 -356 1217 -425 1154 -536 1028 c 2
 -563 997 l 2
 -599 955 -623 934 -635 934 c 0
 -636 934 -636 934 -637 934 c 0
 -638 934 l 0
 -643 934 -645 942 -645 955 c 0
EndSplineSet
Validated: 1
EndChar

StartChar: tehtaO_tehtaO.shift4
Encoding: 30 -1 30
Width: 0
VWidth: 1000
Flags: HW
LayerCount: 2
Fore
SplineSet
-782 955 m 0
 -782 1054 -714 1442 -613 1442 c 0
 -584 1442 -551 1402 -551 1351 c 0
 -551 1317 -575 1231 -598 1231 c 0
 -601 1231 -604 1233 -604 1237 c 0
 -604 1247 -595 1267 -595 1287 c 0
 -595 1316 -615 1336 -636 1337 c 0
 -654 1337 -682 1312 -731 1067 c 2
 -739 1027 l 2
 -741 1016 -743 1006 -745 998 c 1
 -699 1056 l 1
 -609 1167 -533 1241 -470 1278 c 0
 -445 1293 -425 1300 -408 1300 c 0
 -376 1300 -360 1279 -360 1237 c 0
 -360 1201 -380 1166 -420 1133 c 1
 -443 1112 -460 1102 -469 1102 c 0
 -476 1102 -479 1105 -479 1110 c 0
 -479 1113 -473 1120 -460 1132 c 0
 -445 1147 -438 1162 -438 1176 c 0
 -438 1194 -444 1207 -456 1214 c 0
 -459 1216 -462 1217 -465 1217 c 0
 -493 1217 -562 1154 -673 1028 c 2
 -700 997 l 2
 -736 955 -760 934 -772 934 c 0
 -773 934 -775 934 -776 934 c 0
 -781 935 -782 943 -782 955 c 0
EndSplineSet
Validated: 1
EndChar

StartChar: tehtaU_tehtaU.shift1
Encoding: 31 -1 31
Width: 0
VWidth: 1000
Flags: HW
LayerCount: 2
Fore
SplineSet
-202 1229 m 0
 -205 1229 -206 1230 -206 1233 c 0
 -206 1253 -127 1322 -82 1325 c 1
 -41 1325 -21 1305 -21 1264 c 0
 -21 1138 -329 930 -358 930 c 0
 -359 930 l 0
 -360 930 -360 930 -361 930 c 0
 -363 930 -364 931 -364 935 c 0
 -364 968 -269 1153 -269 1255 c 0
 -269 1310 -302 1330 -317 1330 c 0
 -349 1330 -363 1267 -373 1267 c 0
 -375 1267 -378 1270 -378 1279 c 0
 -378 1304 -346 1422 -279 1422 c 0
 -254 1422 -217 1398 -217 1321 c 0
 -217 1218 -287 1045 -330 968 c 1
 -261 1026 -107 1137 -107 1210 c 0
 -107 1241 -117 1258 -137 1260 c 1
 -160 1260 -195 1229 -202 1229 c 0
EndSplineSet
Validated: 1
EndChar

StartChar: tehtaE_tehtaE.shift1
Encoding: 35 -1 35
Width: 0
VWidth: 1000
Flags: HW
LayerCount: 2
Fore
SplineSet
-138 1312 m 0
 -118.667 1312 -109 1301 -109 1279 c 0
 -109 1267 -116.667 1253.33 -132 1238 c 0
 -152 1216.67 -219 1161.33 -333 1072 c 0
 -397 1022 -432.333 996.667 -439 996 c 2
 -443 996 l 2
 -445.667 996 -448.333 999 -451 1005 c 1
 -451 1017 -386.333 1089 -257 1221 c 0
 -213 1265.67 -188.333 1289.67 -183 1293 c 0
 -166.333 1305.67 -151.333 1312 -138 1312 c 0
-40 1271 m 0
 -20.667 1271 -11 1260 -11 1238 c 0
 -11 1226 -18.667 1212.33 -34 1197 c 0
 -54 1175.67 -121 1120.33 -235 1031 c 0
 -299 981 -334.333 955.667 -341 955 c 2
 -345 955 l 2
 -347.667 955 -350.333 958 -353 964 c 1
 -353 976 -288.333 1048 -159 1180 c 0
 -115 1224.67 -90.333 1248.67 -85 1252 c 0
 -68.333 1264.67 -53.333 1271 -40 1271 c 0
EndSplineSet
Validated: 1
EndChar

StartChar: tehtaE_tehtaE.shift2
Encoding: 36 -1 36
Width: 0
VWidth: 1000
Flags: HW
LayerCount: 2
Fore
SplineSet
-270 1312 m 0
 -250.667 1312 -241 1301 -241 1279 c 0
 -241 1267 -248.667 1253.33 -264 1238 c 0
 -284 1216.67 -351 1161.33 -465 1072 c 0
 -529 1022 -564.333 996.667 -571 996 c 2
 -575 996 l 2
 -577.667 996 -580.333 999 -583 1005 c 1
 -583 1017 -518.333 1089 -389 1221 c 0
 -345 1265.67 -320.333 1289.67 -315 1293 c 0
 -298.333 1305.67 -283.333 1312 -270 1312 c 0
-172 1271 m 0
 -152.667 1271 -143 1260 -143 1238 c 0
 -143 1226 -150.667 1212.33 -166 1197 c 0
 -186 1175.67 -253 1120.33 -367 1031 c 0
 -431 981 -466.333 955.667 -473 955 c 2
 -477 955 l 2
 -479.667 955 -482.333 958 -485 964 c 1
 -485 976 -420.333 1048 -291 1180 c 0
 -247 1224.67 -222.333 1248.67 -217 1252 c 0
 -200.333 1264.67 -185.333 1271 -172 1271 c 0
EndSplineSet
Validated: 1
EndChar

StartChar: tehtaE_tehtaE.shift3
Encoding: 37 -1 37
Width: 0
VWidth: 1000
Flags: HW
LayerCount: 2
Fore
SplineSet
-402 1309 m 0
 -382.667 1309 -373 1298 -373 1276 c 0
 -373 1264 -380.667 1250.33 -396 1235 c 0
 -416 1213.67 -483 1158.33 -597 1069 c 0
 -661 1019 -696.333 993.667 -703 993 c 2
 -707 993 l 2
 -709.667 993 -712.333 996 -715 1002 c 1
 -715 1014 -650.333 1086 -521 1218 c 0
 -477 1262.67 -452.333 1286.67 -447 1290 c 0
 -430.333 1302.67 -415.333 1309 -402 1309 c 0
-304 1268 m 0
 -284.667 1268 -275 1257 -275 1235 c 0
 -275 1223 -282.667 1209.33 -298 1194 c 0
 -318 1172.67 -385 1117.33 -499 1028 c 0
 -563 978 -598.333 952.667 -605 952 c 2
 -609 952 l 2
 -611.667 952 -614.333 955 -617 961 c 1
 -617 973 -552.333 1045 -423 1177 c 0
 -379 1221.67 -354.333 1245.67 -349 1249 c 0
 -332.333 1261.67 -317.333 1268 -304 1268 c 0
EndSplineSet
Validated: 1
EndChar

StartChar: tehtaE_tehtaE.shift4
Encoding: 38 -1 38
Width: 0
VWidth: 1000
Flags: HW
LayerCount: 2
Fore
SplineSet
-531 1309 m 0
 -511.667 1309 -502 1298 -502 1276 c 0
 -502 1264 -509.667 1250.33 -525 1235 c 0
 -545 1213.67 -612 1158.33 -726 1069 c 0
 -790 1019 -825.333 993.667 -832 993 c 2
 -836 993 l 2
 -838.667 993 -841.333 996 -844 1002 c 1
 -844 1014 -779.333 1086 -650 1218 c 0
 -606 1262.67 -581.333 1286.67 -576 1290 c 0
 -559.333 1302.67 -544.333 1309 -531 1309 c 0
-433 1268 m 0
 -413.667 1268 -404 1257 -404 1235 c 0
 -404 1223 -411.667 1209.33 -427 1194 c 0
 -447 1172.67 -514 1117.33 -628 1028 c 0
 -692 978 -727.333 952.667 -734 952 c 2
 -738 952 l 2
 -740.667 952 -743.333 955 -746 961 c 1
 -746 973 -681.333 1045 -552 1177 c 0
 -508 1221.67 -483.333 1245.67 -478 1249 c 0
 -461.333 1261.67 -446.333 1268 -433 1268 c 0
EndSplineSet
Validated: 1
EndChar

StartChar: tehtaN.altnarrowlow
Encoding: 39 -1 39
Width: 0
Flags: HW
LayerCount: 2
Fore
SplineSet
-535 868 m 0
 -402 868 -354 818 -274 818 c 0
 -206 818 -149 844 -100 872 c 0
 -149 780 -203 734 -260 734 c 0
 -426 734 -434 780 -559 780 c 0
 -592 780 -653 762 -745 728 c 0
 -708 796 -639 868 -535 868 c 0
EndSplineSet
Validated: 1
EndChar

StartChar: tehtaN.altwidelow
Encoding: 40 -1 40
Width: 0
Flags: HW
LayerCount: 2
Fore
SplineSet
-762 868 m 0
 -576 868 -426 799 -264 799 c 0
 -188 799 -108 827 -45 858 c 0
 -113 762 -176 707 -348 707 c 0
 -504 707 -626 778 -782 778 c 0
 -909 778 -981 758 -1124 725 c 0
 -1030 801 -912 868 -762 868 c 0
EndSplineSet
Validated: 1
EndChar

StartChar: tehtaS.raisedalt
Encoding: 41 -1 41
Width: 438
VWidth: 1000
Flags: HW
LayerCount: 2
Back
SplineSet
-359.992 481 m 1
 -508.437 481 -624.437 496.667 -707.992 528 c 1
 -866.992 387 l 1
 -944.325 314.333 -995.325 246.333 -1019.99 183 c 0
 -1035.99 140.333 -1043.99 94.333 -1043.99 45 c 0
 -1043.99 -73.667 -1010.99 -164.667 -944.992 -228 c 0
 -924.325 -248.667 -898.325 -268.333 -866.992 -287 c 0
 -809.659 -322.333 -722.659 -347 -605.992 -361 c 0
 -562.659 -366.333 -521.325 -369 -481.992 -369 c 0
 -365.325 -369 -283.325 -344 -235.992 -294 c 0
 -210.659 -266.667 -197.992 -233.667 -197.992 -195 c 0
 -197.992 -172.333 -206.992 -152.667 -224.992 -136 c 0
 -231.659 -130.667 -234.992 -126.333 -234.992 -123 c 0
 -234.992 -111.667 -219.992 -96.667 -189.992 -78 c 0
 -172.659 -66.667 -160.325 -61 -152.992 -61 c 0
 -133.659 -61 -123.992 -91.333 -123.992 -152 c 0
 -123.992 -225.333 -162.325 -292.667 -238.992 -354 c 1
 -325.659 -426.667 -439.659 -465 -580.992 -469 c 0
 -602.992 -469 l 0
 -793.659 -469 -939.325 -409 -1039.99 -289 c 0
 -1110.66 -204.985 -1145.99 -115.318 -1145.99 -20 c 0
 -1145.99 90 -1104.66 191.667 -1021.99 285 c 0
 -999.992 309.667 -954.659 353.333 -885.992 416 c 0
 -829.992 467.333 -790.992 509.667 -768.992 543 c 1
 -802.992 552.333 -852.325 557 -916.992 557 c 0
 -1014.33 557 -1084.66 540 -1127.99 506 c 1
 -1136.66 493.333 -1141.99 494.667 -1143.99 510 c 1
 -1151.33 539.333 -1120.66 578.333 -1051.99 627 c 1
 -1023.33 645.667 -979.659 655 -920.992 655 c 0
 -863.659 655 -755.992 641.667 -597.992 615 c 0
 -440.659 588.333 -327.659 575 -258.992 575 c 0
 -171.659 575 -100.659 591.667 -45.9922 625 c 0
 -31.3252 633.667 -23.9922 631.333 -23.9922 618 c 1
 -21.9922 598 -40.9922 575.333 -80.9922 550 c 1
 -157.659 505.333 -250.659 482.333 -359.992 481 c 1
-181 274 m 1
 -223.667 174 -262.333 103.667 -297 63 c 0
 -349 1.66699 -412.333 -29 -487 -29 c 0
 -563 -29 -628.667 0.333008 -684 59 c 0
 -740.667 119.667 -769 193.667 -769 281 c 0
 -769 384.333 -728.667 476.667 -648 558 c 0
 -614 592 -575.333 620.333 -532 643 c 0
 -517.333 651 -503 655 -489 655 c 0
 -467 655 -441 643.333 -411 620 c 0
 -390.333 604 -380 590 -380 578 c 0
 -380 560.667 -397.667 538 -433 510 c 0
 -445.667 500.667 -453.333 496 -456 496 c 0
 -460 496 -471.667 504.333 -491 521 c 0
 -517.667 545 -542 557 -564 557 c 0
 -606 557 -638.667 525.333 -662 462 c 0
 -677.333 420.667 -685 376 -685 328 c 0
 -685 258.667 -662.333 200 -617 152 c 128
 -571.667 104 -512.333 80 -439 80 c 0
 -370.333 80 -307.333 131.333 -250 234 c 0
 -217.333 292.667 -194.333 352 -181 412 c 1
 -187.324 509.676 -177.324 571.676 -151 598 c 1
 -129 622 -104.667 639.333 -78 650 c 0
 -67.333 654.667 -58 657 -50 657 c 0
 -32 657 -16.667 643.333 -4 616 c 0
 2 602.667 5 590.667 5 580 c 0
 5 555.333 -1 543 -13 543 c 0
 -47 543 -68.333 530.333 -77 505 c 0
 -81.667 491.667 -84.333 465.333 -85 426 c 1
 -90.333 407.333 -91 347 -87 245 c 0
 -70.9805 -199.994 -72.6465 -468.327 -92 -560 c 0
 -104 -615.333 -123.667 -650.667 -151 -666 c 1
 -170.333 -680.667 -192.667 -693 -218 -703 c 0
 -233.333 -708.333 -242.333 -709 -245 -705 c 0
 -249.667 -699 -245 -686 -231 -666 c 1
 -197 -624.667 -178.333 -555.667 -175 -459 c 1
 -171 -292 l 1
 -171 -287 l 2
 -169.667 -261.667 -171 -198.667 -175 -98 c 0
 -179 4.66699 -181 128.667 -181 274 c 1
-728 299 m 1
 -728 411.667 -691.667 504.667 -619 578 c 1
 -549.667 642 -472 675.333 -386 678 c 1
 -306.667 678 -243 661 -195 627 c 0
 -173.667 611.667 -150.667 590.333 -126 563 c 0
 -79.333 512.333 -56 442.667 -56 354 c 0
 -56 225.333 -98 127.333 -182 60 c 0
 -246.667 8 -328.333 -18 -427 -18 c 0
 -511 -18 -579 9 -631 63 c 1
 -692.993 124.993 -725.327 203.66 -728 299 c 1
-138 303 m 0
 -138 383.667 -170.667 453 -236 511 c 0
 -292.667 561.667 -355.333 588.667 -424 592 c 2
 -435 592 l 2
 -495 592 -546 569 -588 523 c 0
 -629.333 477.667 -650 419.333 -650 348 c 128
 -650 276.667 -624 212.667 -572 156 c 0
 -518 97.333 -453.333 67.333 -378 66 c 0
 -291.333 66 -225.667 98 -181 162 c 0
 -152.333 203.333 -138 250.333 -138 303 c 0
-716 190 m 1
 -721.098 216.751 -723.765 246.418 -724 279 c 0
 -724 331 -714.667 377.333 -696 418 c 0
 -684.667 444 -666 478 -640 520 c 1
 -761.333 538.667 -901.333 538.667 -1060 520 c 1
 -1086 446.667 -1099 383.333 -1099 330 c 0
 -1099 250.667 -1073.67 187 -1023 139 c 0
 -981.667 99.667 -929.667 80 -867 80 c 0
 -817 80 -774.333 102 -739 146 c 0
 -723.667 165.333 -716 180 -716 190 c 1
-165 254 m 1
 -209.667 171.333 -237.333 121.667 -248 105 c 0
 -307.01 15.667 -379.676 -29 -466 -29 c 0
 -570.667 -29 -643 23 -683 127 c 1
 -730.333 67.667 -770.333 27.667 -803 7 c 0
 -839 -15.667 -879.667 -27 -925 -27 c 0
 -1001 -27 -1064 7.33301 -1114 76 c 0
 -1158.67 138 -1181 210.333 -1181 293 c 0
 -1181 349 -1166.67 403.667 -1138 457 c 0
 -1129.33 472.333 -1118.33 490.667 -1105 512 c 1
 -1127 508 -1157.67 504 -1197 500 c 1
 -1225.67 496 -1239 500 -1237 512 c 0
 -1236.33 516.667 -1232.67 522.667 -1226 530 c 1
 -1192 572.667 -1128.33 604.667 -1035 626 c 0
 -985 637.333 -934.667 643 -884 643 c 0
 -840.667 643 -733.667 636 -563 622 c 0
 -475.667 615.333 -408.667 612 -362 612 c 0
 -336 612 -264.667 620 -148 636 c 0
 -49.333 649.333 2.33301 649 7 635 c 0
 10.333 627 0.666992 614 -22 596 c 0
 -48.667 573.333 -64 538 -68 490 c 0
 -70 468.667 -69.667 395 -67 269 c 2
 -67 248 l 2
 -53.667 -246.667 -58.333 -524 -81 -584 c 0
 -97 -622.667 -114 -649 -132 -663 c 0
 -142 -671.667 -162 -683.333 -192 -698 c 0
 -218 -711.333 -231 -711.667 -231 -699 c 0
 -231 -691 -225.333 -680 -214 -666 c 0
 -180 -624 -161.667 -554.667 -159 -458 c 1
 -157 -288 l 1
 -157 -287 l 2
 -154.333 -249.667 -154.667 -197.333 -158 -130 c 0
 -162.667 -32.667 -165 95.333 -165 254 c 1
-165 532 m 1
 -254.333 508 -396.333 501.333 -591 512 c 1
 -622.333 428 -638 362.333 -638 315 c 0
 -638 245.667 -614 188 -566 142 c 0
 -524 100.667 -471.667 80 -409 80 c 0
 -353 80 -298 122.667 -244 208 c 0
 -206.667 266 -180.333 327 -165 391 c 1
 -165 532 l 1
-188 524 m 1
 -265.333 512.667 -406.333 511.333 -611 520 c 1
 -659.667 480.667 -685 422 -687 344 c 1
 -687 268 -662.667 204.333 -614 153 c 0
 -568 104.333 -509.667 80 -439 80 c 0
 -375 80 -317.333 118.667 -266 196 c 0
 -210.667 279.39 -183 369.057 -183 465 c 0
 -183 484.333 -184.667 504 -188 524 c 1
-181 254 m 1
 -220.333 174.667 -250.333 120.667 -271 92 c 0
 -329.667 10 -400 -31 -482 -31 c 0
 -560.667 -31 -628 -0.666992 -684 60 c 0
 -740.667 122 -769 197.667 -769 287 c 0
 -769 379 -740 451.333 -682 504 c 0
 -676 510 -669.667 515.333 -663 520 c 1
 -702.333 520 -739.667 512 -775 496 c 0
 -810.121 480.948 -812.121 497.281 -781 545 c 1
 -742.333 581 -705.667 604 -671 614 c 0
 -641.667 622.667 -604 627 -558 627 c 1
 -311 621 l 1
 -308 621 l 2
 -237.333 621 -165.333 629 -92 645 c 0
 -72.667 649 -58 651 -48 651 c 0
 -22 651 -9.33301 644 -10 630 c 0
 -10 621.333 -17.333 610.667 -32 598 c 0
 -57.333 576.667 -72.667 557.667 -78 541 c 0
 -85.333 521 -88 469 -86 385 c 0
 -84 321.667 -83 289 -83 287 c 0
 -70.1729 -238.917 -74.8398 -529.25 -97 -584 c 0
 -113 -623.333 -129.333 -649.667 -146 -663 c 0
 -156.667 -671.667 -177.333 -683.333 -208 -698 c 0
 -235.333 -712 -248.333 -711.667 -247 -697 c 0
 -246.333 -689 -241 -678.667 -231 -666 c 0
 -197 -623.333 -178.333 -552 -175 -452 c 1
 -171 -292 l 1
 -171 -287 l 2
 -169 -252.333 -169.667 -200 -173 -130 c 0
 -178.333 -36.667 -181 91.333 -181 254 c 1
EndSplineSet
Fore
SplineSet
22 664 m 0
 158 664 283 642 364 574 c 0
 408 536 430 497 430 457 c 0
 430 376 361 314 274 309 c 1
 266 309 l 2
 222 309 184 342 152 408 c 1
 184 400 210 396 231 396 c 0
 278 396 301 416 301 455 c 0
 301 486 214 613 18 613 c 0
 -50 613 -80 600 -124 560 c 0
 -138 548 -172 546 -172 560 c 0
 -172 580 -145 664 22 664 c 0
EndSplineSet
Validated: 1
EndChar

StartChar: tehtaS.raisedlambe
Encoding: 42 -1 42
Width: 438
VWidth: 1000
Flags: HW
LayerCount: 2
Back
SplineSet
-359.992 481 m 1
 -508.437 481 -624.437 496.667 -707.992 528 c 1
 -866.992 387 l 1
 -944.325 314.333 -995.325 246.333 -1019.99 183 c 0
 -1035.99 140.333 -1043.99 94.333 -1043.99 45 c 0
 -1043.99 -73.667 -1010.99 -164.667 -944.992 -228 c 0
 -924.325 -248.667 -898.325 -268.333 -866.992 -287 c 0
 -809.659 -322.333 -722.659 -347 -605.992 -361 c 0
 -562.659 -366.333 -521.325 -369 -481.992 -369 c 0
 -365.325 -369 -283.325 -344 -235.992 -294 c 0
 -210.659 -266.667 -197.992 -233.667 -197.992 -195 c 0
 -197.992 -172.333 -206.992 -152.667 -224.992 -136 c 0
 -231.659 -130.667 -234.992 -126.333 -234.992 -123 c 0
 -234.992 -111.667 -219.992 -96.667 -189.992 -78 c 0
 -172.659 -66.667 -160.325 -61 -152.992 -61 c 0
 -133.659 -61 -123.992 -91.333 -123.992 -152 c 0
 -123.992 -225.333 -162.325 -292.667 -238.992 -354 c 1
 -325.659 -426.667 -439.659 -465 -580.992 -469 c 0
 -602.992 -469 l 0
 -793.659 -469 -939.325 -409 -1039.99 -289 c 0
 -1110.66 -204.985 -1145.99 -115.318 -1145.99 -20 c 0
 -1145.99 90 -1104.66 191.667 -1021.99 285 c 0
 -999.992 309.667 -954.659 353.333 -885.992 416 c 0
 -829.992 467.333 -790.992 509.667 -768.992 543 c 1
 -802.992 552.333 -852.325 557 -916.992 557 c 0
 -1014.33 557 -1084.66 540 -1127.99 506 c 1
 -1136.66 493.333 -1141.99 494.667 -1143.99 510 c 1
 -1151.33 539.333 -1120.66 578.333 -1051.99 627 c 1
 -1023.33 645.667 -979.659 655 -920.992 655 c 0
 -863.659 655 -755.992 641.667 -597.992 615 c 0
 -440.659 588.333 -327.659 575 -258.992 575 c 0
 -171.659 575 -100.659 591.667 -45.9922 625 c 0
 -31.3252 633.667 -23.9922 631.333 -23.9922 618 c 1
 -21.9922 598 -40.9922 575.333 -80.9922 550 c 1
 -157.659 505.333 -250.659 482.333 -359.992 481 c 1
EndSplineSet
Fore
SplineSet
-73.5 609 m 1
 -24.6667 646 54 653 152 653 c 1
 231 653 318 622.667 364 584 c 0
 408 546.286 430 507.286 430 467 c 0
 430 422.333 411 385 373 355 c 0
 345 333 312 321 274 319 c 2
 266 319 l 2
 222 319 184 352 152 418 c 1
 184 410 210.333 406 231 406 c 0
 277.667 406 301 425.667 301 465 c 0
 301 484.333 290.667 506 270 530 c 0
 235.333 571.333 153.667 609.332 46.6787 609.332 c 1
 2.33333 609.332 -36.6887 582.391 -56.6689 568 c 1
 -51.4613 585.387 -53.0198 600.445 -73.5 609 c 1
EndSplineSet
Validated: 1
EndChar

StartChar: tehtaS.aha
Encoding: 43 -1 43
Width: 440
VWidth: 1000
Flags: HW
LayerCount: 2
Back
SplineSet
-732 260 m 4
 -732 351.333 -704.667 438 -650 520 c 5
 -771.333 538.667 -910.667 538.667 -1068 520 c 5
 -1092.67 428 -1105 359.667 -1105 315 c 4
 -1105 241.667 -1080.33 182.333 -1031 137 c 4
 -989.667 99 -938 80 -876 80 c 4
 -826 80 -783 102.333 -747 147 c 4
 -731.667 166.333 -724 180.667 -724 190 c 5
 -729.064 210.774 -731.731 234.107 -732 260 c 4
-173 532 m 5
 -265 506.667 -407 500 -599 512 c 5
 -630.333 425.333 -646 358.333 -646 311 c 4
 -646 235.667 -620.333 176 -569 132 c 4
 -528.333 97.333 -478.333 80 -419 80 c 4
 -351.667 80 -291 129 -237 227 c 4
 -208.333 279 -187 333.667 -173 391 c 5
 -173 532 l 5
-175 254 m 5
 -212.333 176.667 -237.333 127.667 -250 107 c 4
 -306.193 17.667 -379.526 -27 -470 -27 c 4
 -554 -27 -618 4.33301 -662 67 c 4
 -675.333 85 -685.667 105 -693 127 c 5
 -737.667 65 -780.667 23 -822 1 c 4
 -855.333 -16.333 -892.333 -25 -933 -25 c 4
 -1018.33 -25 -1085.33 11 -1134 83 c 4
 -1169.33 136.333 -1187 198 -1187 268 c 4
 -1187 339.333 -1163 420.667 -1115 512 c 5
 -1137 508 -1167.67 504 -1207 500 c 5
 -1247.36 493.723 -1257.02 503.723 -1236 530 c 4
 -1199.33 574 -1134.33 606.333 -1041 627 c 4
 -993.667 637.667 -946 643 -898 643 c 4
 -866 643 -774 637.667 -622 627 c 4
 -539.333 621 -469.667 618 -413 618 c 4
 -323.667 618 -243.667 624.333 -173 637 c 5
 -173 840 l 6
 -173 996.667 -163.333 1104.67 -144 1164 c 4
 -126 1220.67 -97.333 1255.33 -58 1268 c 5
 -42 1272 -30 1270 -22 1262 c 4
 -0.666992 1239.33 11.333 1213 14 1183 c 4
 16.667 1159.67 9 1148.33 -9 1149 c 5
 -52.333 1159 -75 1066 -77 870 c 4
 -77.667 700.667 -75.333 471.667 -70 183 c 4
 -69.333 161 -69 140.333 -69 121 c 4
 -69 87 -57 50 -33 10 c 4
 -18.6328 -13.9395 -14.2998 -31.6064 -20 -43 c 4
 -27.333 -56.333 -50.333 -46.667 -89 -14 c 4
 -129 19.333 -154 62 -164 114 c 4
 -168 138.667 -171.667 185.333 -175 254 c 5
-181 274 m 1
 -217.667 189.333 -247.333 130.667 -270 98 c 0
 -328 16 -405.667 -25 -503 -25 c 0
 -569.667 -25 -628.667 1.66699 -680 55 c 0
 -739.333 115.667 -769 192.333 -769 285 c 0
 -769 385.667 -729.667 476 -651 556 c 0
 -616.333 591.333 -577.333 620.333 -534 643 c 1
 -516.667 651 -502.333 655 -491 655 c 0
 -467.667 655 -441 643.333 -411 620 c 0
 -390.333 604 -380 590 -380 578 c 0
 -380 560 -397.333 537.667 -432 511 c 0
 -445.333 501 -454 496 -458 496 c 128
 -462 496 -473.667 504.333 -493 521 c 0
 -519.667 545 -543.333 557 -564 557 c 0
 -604 557 -636 529.667 -660 475 c 0
 -678 435.667 -687 392 -687 344 c 0
 -687 257.333 -659.333 189 -604 139 c 0
 -560.667 99.667 -506.333 80 -441 80 c 0
 -369.667 80 -305.333 133 -248 239 c 0
 -218 295 -195.667 353.333 -181 414 c 1
 -181 785.333 -175.667 1013.33 -165 1098 c 1
 -155.667 1162.67 -135.667 1210.67 -105 1242 c 0
 -87 1260.67 -67.333 1270 -46 1270 c 0
 -25.333 1270 -8.33301 1251 5 1213 c 0
 10.333 1198.33 13 1186 13 1176 c 0
 13 1159.33 7.66699 1150.33 -3 1149 c 2
 -18 1149 l 2
 -56 1149 -77 1056 -81 870 c 1
 -82.333 630.667 -81 381 -77 121 c 0
 -76.333 87 -64.333 50.333 -41 11 c 0
 -25.29 -14.4355 -20.957 -32.4355 -28 -43 c 1
 -34 -57.667 -57 -48 -97 -14 c 0
 -134.333 17.333 -158 56 -168 102 c 0
 -174.667 133.333 -179 190.667 -181 274 c 1
EndSplineSet
Fore
SplineSet
-30 26 m 0
 -12 26 12 68 43 98 c 2
 109 165 l 1
 152 204 199 223 249 223 c 0
 338 223 396 189 425 120 c 0
 436 96 441 70 441 42 c 0
 441 -14 417 -57 370 -85 c 0
 343 -101 312 -109 279 -109 c 0
 236 -109 198 -77 165 -13 c 1
 198 -19 224 -23 242 -23 c 0
 283 -23 310 -5 322 30 c 0
 326 40 328 51 328 63 c 1
 323 129 292 163 236 165 c 1
 193 165 147 132 97 65 c 1
 67 20 -17 -50 -32 -50 c 0
 -49 -50 -93 -19 -93 20 c 0
 -93 27 -95 50 -69 50 c 0
 -53 50 -53 26 -30 26 c 0
EndSplineSet
Validated: 1
EndChar

StartChar: tehtaS.lambelow
Encoding: 44 -1 44
Width: 331
VWidth: 1000
Flags: HW
LayerCount: 2
Back
SplineSet
-360 481 m 1
 -508.444 481 -624.444 496.667 -708 528 c 1
 -867 387 l 1
 -944.333 314.333 -995.333 246.333 -1020 183 c 0
 -1036 140.333 -1044 94.333 -1044 45 c 0
 -1044 -73.667 -1011 -164.667 -945 -228 c 0
 -924.333 -248.667 -898.333 -268.333 -867 -287 c 0
 -809.667 -322.333 -722.667 -347 -606 -361 c 0
 -562.667 -366.333 -521.333 -369 -482 -369 c 0
 -365.333 -369 -283.333 -344 -236 -294 c 0
 -210.667 -266.667 -198 -233.667 -198 -195 c 0
 -198 -172.333 -207 -152.667 -225 -136 c 0
 -231.667 -130.667 -235 -126.333 -235 -123 c 0
 -235 -111.667 -220 -96.667 -190 -78 c 0
 -172.667 -66.667 -160.333 -61 -153 -61 c 0
 -133.667 -61 -124 -91.333 -124 -152 c 0
 -124 -225.333 -162.333 -292.667 -239 -354 c 1
 -325.667 -426.667 -439.667 -465 -581 -469 c 0
 -603 -469 l 0
 -793.667 -469 -939.333 -409 -1040 -289 c 0
 -1110.67 -204.985 -1146 -115.318 -1146 -20 c 0
 -1146 90 -1104.67 191.667 -1022 285 c 0
 -1000 309.667 -954.667 353.333 -886 416 c 0
 -830 467.333 -791 509.667 -769 543 c 1
 -803 552.333 -852.333 557 -917 557 c 0
 -1014.33 557 -1084.67 540 -1128 506 c 1
 -1136.67 493.333 -1142 494.667 -1144 510 c 1
 -1151.33 539.333 -1120.67 578.333 -1052 627 c 1
 -1023.33 645.667 -979.667 655 -921 655 c 0
 -863.667 655 -756 641.667 -598 615 c 0
 -440.667 588.333 -327.667 575 -259 575 c 0
 -171.667 575 -100.667 591.667 -46 625 c 0
 -31.333 633.667 -24 631.333 -24 618 c 1
 -22 598 -41 575.333 -81 550 c 1
 -157.667 505.333 -250.667 482.333 -360 481 c 1
EndSplineSet
Fore
SplineSet
-231 -118 m 0
 -231 -77 -63 -14 104 -14 c 0
 235 -14 322 -88 322 -170 c 0
 322 -256 242 -325 170 -325 c 0
 134 -325 96 -300 55 -251 c 1
 61 -251 67 -251 72 -251 c 0
 153 -251 194 -229 195 -184 c 1
 195 -122 102 -79 31 -79 c 0
 14 -79 -80 -88 -114 -103 c 0
 -134 -112 -134 -154 -166 -154 c 0
 -203 -154 -231 -136 -231 -118 c 0
EndSplineSet
Validated: 1
EndChar

StartChar: tehtaS.hyarmen
Encoding: 45 -1 45
Width: 440
VWidth: 1000
Flags: HW
LayerCount: 2
Back
SplineSet
-560 977 m 4
 -527.333 977 -471.667 895 -393 731 c 5
 -197 303 l 5
 -129.667 163.667 -82 94 -54 94 c 4
 -32.667 94 -9.33301 110.667 16 144 c 4
 36.5713 170.667 50.5713 184 58 184 c 4
 66.667 184 71 180 71 172 c 4
 71 160 57 133 29 91 c 4
 -17 22.333 -56.333 -12 -89 -12 c 4
 -139 -12 -208.667 88 -298 288 c 5
 -386 489 l 5
 -571 113 l 5
 -611 37 -646.333 -9 -677 -25 c 4
 -689 -31.667 -702 -35 -716 -35 c 4
 -738.667 -35 -760.667 -23.667 -782 -1 c 4
 -796.667 15 -804 31 -804 47 c 4
 -804 72.333 -789.333 102 -760 136 c 4
 -746 152 -736 160 -730 160 c 4
 -726.667 160 -723 149.667 -719 129 c 4
 -711.667 92.333 -697.667 74 -677 74 c 4
 -653 74 -628.333 97.667 -603 145 c 4
 -595 160.333 -565.333 227.333 -514 346 c 4
 -482 419.333 -451 486.333 -421 547 c 5
 -435.667 589 -462.333 646.333 -501 719 c 4
 -553 817 -592.667 866 -620 866 c 4
 -629.333 866 -641 856 -655 836 c 4
 -666.333 820.667 -675 813 -681 813 c 5
 -688.333 818.333 -692.333 822.333 -693 825 c 4
 -693 839 -675.333 867.333 -640 910 c 4
 -602.667 954.667 -576 977 -560 977 c 4
EndSplineSet
Fore
SplineSet
432 102 m 4
 432 -2 347 -49 270 -49 c 4
 227 -49 189 -17 156 47 c 5
 189 40 215 37 233 37 c 4
 302 37 319 90 319 123 c 5
 314 188 283 222 227 225 c 5
 184 225 120 201 70 134 c 5
 22 63 -47 -13 -89 -13 c 5
 -80 11 -80 33 -80 49 c 4
 -80 52 -80 54 -80 57 c 4
 -80 80 -79 93 -53 93 c 4
 -4 93 36 196 119 243 c 28
 162 268 190 283 240 283 c 4
 401 283 432 164 432 102 c 4
EndSplineSet
Validated: 1
EndChar

StartChar: tehtaS.yanta
Encoding: 46 -1 46
Width: 440
VWidth: 1000
Flags: HW
LayerCount: 2
Back
SplineSet
-681 78 m 5
 -640.333 78 -580.333 166.333 -501 343 c 4
 -483 383 -468.667 416.667 -458 444 c 5
 -498.667 519.333 -529.333 557 -550 557 c 4
 -559.333 557 -572.333 548.667 -589 532 c 4
 -597 524 -603 520 -607 520 c 4
 -613 520 -616.667 523.333 -618 530 c 5
 -618 543.333 -604.333 566.333 -577 599 c 4
 -545.667 636.333 -519 655 -497 655 c 4
 -461 655 -397 558 -305 364 c 6
 -294 342 l 6
 -262.667 276 -226.333 215.667 -185 161 c 4
 -153.667 119 -129.333 98 -112 98 c 4
 -98 98 -78.667 115 -54 149 c 4
 -34 175 -20.333 188.667 -13 190 c 4
 -7.66699 190 -5 186 -5 178 c 4
 -5 161.333 -18.333 130 -45 84 c 4
 -81.667 22.667 -113.333 -8 -140 -8 c 4
 -180.667 -8 -241.667 63.333 -323 206 c 6
 -423 381 l 5
 -488.333 256.333 -536.667 170 -568 122 c 4
 -635.333 18.667 -689.333 -33 -730 -33 c 4
 -752.667 -33 -773 -19.333 -791 8 c 4
 -799.667 21.333 -804 33 -804 43 c 4
 -804 68.333 -786.333 99.667 -751 137 c 4
 -739 149.667 -731.333 156 -728 156 c 4
 -724 156 -721 147 -719 129 c 5
 -712.333 97 -699.667 80 -681 78 c 5
EndSplineSet
Fore
SplineSet
-113 98 m 0
 -57 98 -24 308 196 308 c 0
 395 308 432 164 432 102 c 0
 432 -2 347 -49 270 -49 c 0
 227 -49 189 -17 156 47 c 1
 189 40 215 37 233 37 c 0
 302 37 319 90 319 123 c 1
 314 188 282 250 185 250 c 0
 126 250 40 218 -5 144 c 0
 -46 76 -97 -8 -142 -8 c 1
 -136 8 -135 24 -135 37 c 0
 -135 53 -137 66 -137 77 c 0
 -137 90 -133 98 -113 98 c 0
EndSplineSet
Validated: 1
EndChar

StartChar: tehtaS.swashraised
Encoding: 47 -1 47
Width: 620
VWidth: 1000
Flags: HW
LayerCount: 2
Back
SplineSet
118 408 m 4
 118 581.747 164 794 274 794 c 5
 338 794 356 777.044 356 733 c 4
 356 634 86.2764 654 -35 654 c 4
 -125 654 -172 580 -172 560 c 4
 -172 546 -138 548 -124 560 c 4
 -80 600 -50 613 18 613 c 4
 230 613 426 611 426 757 c 4
 426 817 389.7 874 302 874 c 4
 194.714 874 82 658 82 470 c 4
 82 282 90 -260 412 -260 c 4
 472.519 -260 528 -202 528 -140 c 4
 528 -64.9697 472.573 -18.3857 462 -35 c 5
 462 -41.9912 479 -69.1816 479 -84 c 4
 479 -126.6 445.4 -148 423 -148 c 5
 206.528 -144.916 118 140 118 408 c 4
515 972 m 0
 515 981.33 515 981.33 559 1040 c 1
 576 1060 576 1060 583 1061 c 0
 595 1061 595 1061 656 1011 c 2
 661 1007 l 2
 679 993 679 993 681 981 c 1
 681 961 681 961 640 915 c 0
 621 893 621 893 616 893 c 0
 608 893 608 893 552 936 c 0
 519.2 960.6 519.2 960.6 517 965 c 0
 515 968 515 968 515 972 c 0
263 972 m 0
 263 981.33 263 981.33 307 1040 c 1
 324 1060 324 1060 331 1061 c 0
 343 1061 343 1061 404 1011 c 2
 409 1007 l 2
 427 993 427 993 429 981 c 1
 429 961 429 961 388 915 c 0
 369 893 369 893 364 893 c 0
 356 893 356 893 300 936 c 0
 267.2 960.6 267.2 960.6 265 965 c 0
 263 968 263 968 263 972 c 0
376 1155 m 0
 376 1164.33 376 1164.33 420 1223 c 1
 437 1243 437 1243 444 1244 c 0
 456 1244 456 1244 517 1194 c 2
 522 1190 l 2
 540 1176 540 1176 542 1164 c 1
 542 1144 542 1144 501 1098 c 0
 482 1076 482 1076 477 1076 c 0
 469 1076 469 1076 413 1119 c 0
 380.2 1143.6 380.2 1143.6 378 1148 c 0
 376 1151 376 1151 376 1155 c 0
-359.992 481 m 1
 -508.437 481 -624.437 496.667 -707.992 528 c 1
 -866.992 387 l 1
 -944.325 314.333 -995.325 246.333 -1019.99 183 c 0
 -1035.99 140.333 -1043.99 94.333 -1043.99 45 c 0
 -1043.99 -73.667 -1010.99 -164.667 -944.992 -228 c 0
 -924.325 -248.667 -898.325 -268.333 -866.992 -287 c 0
 -809.659 -322.333 -722.659 -347 -605.992 -361 c 0
 -562.659 -366.333 -521.325 -369 -481.992 -369 c 0
 -365.325 -369 -283.325 -344 -235.992 -294 c 0
 -210.659 -266.667 -197.992 -233.667 -197.992 -195 c 0
 -197.992 -172.333 -206.992 -152.667 -224.992 -136 c 0
 -231.659 -130.667 -234.992 -126.333 -234.992 -123 c 0
 -234.992 -111.667 -219.992 -96.667 -189.992 -78 c 0
 -172.659 -66.667 -160.325 -61 -152.992 -61 c 0
 -133.659 -61 -123.992 -91.333 -123.992 -152 c 0
 -123.992 -225.333 -162.325 -292.667 -238.992 -354 c 1
 -325.659 -426.667 -439.659 -465 -580.992 -469 c 0
 -602.992 -469 l 0
 -793.659 -469 -939.325 -409 -1039.99 -289 c 0
 -1110.66 -204.985 -1145.99 -115.318 -1145.99 -20 c 0
 -1145.99 90 -1104.66 191.667 -1021.99 285 c 0
 -999.992 309.667 -954.659 353.333 -885.992 416 c 0
 -829.992 467.333 -790.992 509.667 -768.992 543 c 1
 -802.992 552.333 -852.325 557 -916.992 557 c 0
 -1014.33 557 -1084.66 540 -1127.99 506 c 1
 -1136.66 493.333 -1141.99 494.667 -1143.99 510 c 1
 -1151.33 539.333 -1120.66 578.333 -1051.99 627 c 1
 -1023.33 645.667 -979.659 655 -920.992 655 c 0
 -863.659 655 -755.992 641.667 -597.992 615 c 0
 -440.659 588.333 -327.659 575 -258.992 575 c 0
 -171.659 575 -100.659 591.667 -45.9922 625 c 0
 -31.3252 633.667 -23.9922 631.333 -23.9922 618 c 1
 -21.9922 598 -40.9922 575.333 -80.9922 550 c 1
 -157.659 505.333 -250.659 482.333 -359.992 481 c 1
-181 274 m 1
 -223.667 174 -262.333 103.667 -297 63 c 0
 -349 1.66699 -412.333 -29 -487 -29 c 0
 -563 -29 -628.667 0.333008 -684 59 c 0
 -740.667 119.667 -769 193.667 -769 281 c 0
 -769 384.333 -728.667 476.667 -648 558 c 0
 -614 592 -575.333 620.333 -532 643 c 0
 -517.333 651 -503 655 -489 655 c 0
 -467 655 -441 643.333 -411 620 c 0
 -390.333 604 -380 590 -380 578 c 0
 -380 560.667 -397.667 538 -433 510 c 0
 -445.667 500.667 -453.333 496 -456 496 c 0
 -460 496 -471.667 504.333 -491 521 c 0
 -517.667 545 -542 557 -564 557 c 0
 -606 557 -638.667 525.333 -662 462 c 0
 -677.333 420.667 -685 376 -685 328 c 0
 -685 258.667 -662.333 200 -617 152 c 128
 -571.667 104 -512.333 80 -439 80 c 0
 -370.333 80 -307.333 131.333 -250 234 c 0
 -217.333 292.667 -194.333 352 -181 412 c 1
 -187.324 509.676 -177.324 571.676 -151 598 c 1
 -129 622 -104.667 639.333 -78 650 c 0
 -67.333 654.667 -58 657 -50 657 c 0
 -32 657 -16.667 643.333 -4 616 c 0
 2 602.667 5 590.667 5 580 c 0
 5 555.333 -1 543 -13 543 c 0
 -47 543 -68.333 530.333 -77 505 c 0
 -81.667 491.667 -84.333 465.333 -85 426 c 1
 -90.333 407.333 -91 347 -87 245 c 0
 -70.9805 -199.994 -72.6465 -468.327 -92 -560 c 0
 -104 -615.333 -123.667 -650.667 -151 -666 c 1
 -170.333 -680.667 -192.667 -693 -218 -703 c 0
 -233.333 -708.333 -242.333 -709 -245 -705 c 0
 -249.667 -699 -245 -686 -231 -666 c 1
 -197 -624.667 -178.333 -555.667 -175 -459 c 1
 -171 -292 l 1
 -171 -287 l 2
 -169.667 -261.667 -171 -198.667 -175 -98 c 0
 -179 4.66699 -181 128.667 -181 274 c 1
-728 299 m 1
 -728 411.667 -691.667 504.667 -619 578 c 1
 -549.667 642 -472 675.333 -386 678 c 1
 -306.667 678 -243 661 -195 627 c 0
 -173.667 611.667 -150.667 590.333 -126 563 c 0
 -79.333 512.333 -56 442.667 -56 354 c 0
 -56 225.333 -98 127.333 -182 60 c 0
 -246.667 8 -328.333 -18 -427 -18 c 0
 -511 -18 -579 9 -631 63 c 1
 -692.993 124.993 -725.327 203.66 -728 299 c 1
-138 303 m 0
 -138 383.667 -170.667 453 -236 511 c 0
 -292.667 561.667 -355.333 588.667 -424 592 c 2
 -435 592 l 2
 -495 592 -546 569 -588 523 c 0
 -629.333 477.667 -650 419.333 -650 348 c 128
 -650 276.667 -624 212.667 -572 156 c 0
 -518 97.333 -453.333 67.333 -378 66 c 0
 -291.333 66 -225.667 98 -181 162 c 0
 -152.333 203.333 -138 250.333 -138 303 c 0
-716 190 m 1
 -721.098 216.751 -723.765 246.418 -724 279 c 0
 -724 331 -714.667 377.333 -696 418 c 0
 -684.667 444 -666 478 -640 520 c 1
 -761.333 538.667 -901.333 538.667 -1060 520 c 1
 -1086 446.667 -1099 383.333 -1099 330 c 0
 -1099 250.667 -1073.67 187 -1023 139 c 0
 -981.667 99.667 -929.667 80 -867 80 c 0
 -817 80 -774.333 102 -739 146 c 0
 -723.667 165.333 -716 180 -716 190 c 1
-165 254 m 1
 -209.667 171.333 -237.333 121.667 -248 105 c 0
 -307.01 15.667 -379.676 -29 -466 -29 c 0
 -570.667 -29 -643 23 -683 127 c 1
 -730.333 67.667 -770.333 27.667 -803 7 c 0
 -839 -15.667 -879.667 -27 -925 -27 c 0
 -1001 -27 -1064 7.33301 -1114 76 c 0
 -1158.67 138 -1181 210.333 -1181 293 c 0
 -1181 349 -1166.67 403.667 -1138 457 c 0
 -1129.33 472.333 -1118.33 490.667 -1105 512 c 1
 -1127 508 -1157.67 504 -1197 500 c 1
 -1225.67 496 -1239 500 -1237 512 c 0
 -1236.33 516.667 -1232.67 522.667 -1226 530 c 1
 -1192 572.667 -1128.33 604.667 -1035 626 c 0
 -985 637.333 -934.667 643 -884 643 c 0
 -840.667 643 -733.667 636 -563 622 c 0
 -475.667 615.333 -408.667 612 -362 612 c 0
 -336 612 -264.667 620 -148 636 c 0
 -49.333 649.333 2.33301 649 7 635 c 0
 10.333 627 0.666992 614 -22 596 c 0
 -48.667 573.333 -64 538 -68 490 c 0
 -70 468.667 -69.667 395 -67 269 c 2
 -67 248 l 2
 -53.667 -246.667 -58.333 -524 -81 -584 c 0
 -97 -622.667 -114 -649 -132 -663 c 0
 -142 -671.667 -162 -683.333 -192 -698 c 0
 -218 -711.333 -231 -711.667 -231 -699 c 0
 -231 -691 -225.333 -680 -214 -666 c 0
 -180 -624 -161.667 -554.667 -159 -458 c 1
 -157 -288 l 1
 -157 -287 l 2
 -154.333 -249.667 -154.667 -197.333 -158 -130 c 0
 -162.667 -32.667 -165 95.333 -165 254 c 1
-165 532 m 1
 -254.333 508 -396.333 501.333 -591 512 c 1
 -622.333 428 -638 362.333 -638 315 c 0
 -638 245.667 -614 188 -566 142 c 0
 -524 100.667 -471.667 80 -409 80 c 0
 -353 80 -298 122.667 -244 208 c 0
 -206.667 266 -180.333 327 -165 391 c 1
 -165 532 l 1
-188 524 m 1
 -265.333 512.667 -406.333 511.333 -611 520 c 1
 -659.667 480.667 -685 422 -687 344 c 1
 -687 268 -662.667 204.333 -614 153 c 0
 -568 104.333 -509.667 80 -439 80 c 0
 -375 80 -317.333 118.667 -266 196 c 0
 -210.667 279.39 -183 369.057 -183 465 c 0
 -183 484.333 -184.667 504 -188 524 c 1
-181 254 m 1
 -220.333 174.667 -250.333 120.667 -271 92 c 0
 -329.667 10 -400 -31 -482 -31 c 0
 -560.667 -31 -628 -0.666992 -684 60 c 0
 -740.667 122 -769 197.667 -769 287 c 0
 -769 379 -740 451.333 -682 504 c 0
 -676 510 -669.667 515.333 -663 520 c 1
 -702.333 520 -739.667 512 -775 496 c 0
 -810.121 480.948 -812.121 497.281 -781 545 c 1
 -742.333 581 -705.667 604 -671 614 c 0
 -641.667 622.667 -604 627 -558 627 c 1
 -311 621 l 1
 -308 621 l 2
 -237.333 621 -165.333 629 -92 645 c 0
 -72.667 649 -58 651 -48 651 c 0
 -22 651 -9.33301 644 -10 630 c 0
 -10 621.333 -17.333 610.667 -32 598 c 0
 -57.333 576.667 -72.667 557.667 -78 541 c 0
 -85.333 521 -88 469 -86 385 c 0
 -84 321.667 -83 289 -83 287 c 0
 -70.1729 -238.917 -74.8398 -529.25 -97 -584 c 0
 -113 -623.333 -129.333 -649.667 -146 -663 c 0
 -156.667 -671.667 -177.333 -683.333 -208 -698 c 0
 -235.333 -712 -248.333 -711.667 -247 -697 c 0
 -246.333 -689 -241 -678.667 -231 -666 c 0
 -197 -623.333 -178.333 -552 -175 -452 c 1
 -171 -292 l 1
 -171 -287 l 2
 -169 -252.333 -169.667 -200 -173 -130 c 0
 -178.333 -36.667 -181 91.333 -181 254 c 1
EndSplineSet
Fore
SplineSet
102 613 m 1
 74 613 46 613 18 613 c 0
 -50 613 -80 600 -124 560 c 0
 -138 548 -172 546 -172 560 c 0
 -172 580 -125 654 -35 654 c 0
 4 654 58 652 113 652 c 1
 154 775 229 874 302 874 c 0
 390 874 426 817 426 757 c 0
 426 640 300 618 140 614 c 1
 125 549 118 476 118 408 c 0
 118 140 207 -145 423 -148 c 0
 445 -148 479 -127 479 -84 c 0
 479 -69 462 -42 462 -35 c 1
 464 -33 466 -32 469 -32 c 0
 487 -32 528 -75 528 -140 c 0
 528 -202 473 -260 412 -260 c 0
 90 -260 82 282 82 470 c 0
 82 517 89 566 102 613 c 1
151 653 m 1
 256 657 356 673 356 733 c 0
 356 777 338 794 274 794 c 0
 216 794 176 735 151 653 c 1
EndSplineSet
Validated: 1
EndChar

StartChar: tehtaS.swashraisedlambe
Encoding: 48 -1 48
Width: 620
VWidth: 1000
Flags: HW
LayerCount: 2
Back
SplineSet
515 972 m 4
 515 981.33 515 981.33 559 1040 c 5
 576 1060 576 1060 583 1061 c 4
 595 1061 595 1061 656 1011 c 6
 661 1007 l 6
 679 993 679 993 681 981 c 5
 681 961 681 961 640 915 c 4
 621 893 621 893 616 893 c 4
 608 893 608 893 552 936 c 4
 519.2 960.6 519.2 960.6 517 965 c 4
 515 968 515 968 515 972 c 4
263 972 m 4
 263 981.33 263 981.33 307 1040 c 5
 324 1060 324 1060 331 1061 c 4
 343 1061 343 1061 404 1011 c 6
 409 1007 l 6
 427 993 427 993 429 981 c 5
 429 961 429 961 388 915 c 4
 369 893 369 893 364 893 c 4
 356 893 356 893 300 936 c 4
 267.2 960.6 267.2 960.6 265 965 c 4
 263 968 263 968 263 972 c 4
376 1155 m 4
 376 1164.33 376 1164.33 420 1223 c 5
 437 1243 437 1243 444 1244 c 4
 456 1244 456 1244 517 1194 c 6
 522 1190 l 6
 540 1176 540 1176 542 1164 c 5
 542 1144 542 1144 501 1098 c 4
 482 1076 482 1076 477 1076 c 4
 469 1076 469 1076 413 1119 c 4
 380.2 1143.6 380.2 1143.6 378 1148 c 4
 376 1151 376 1151 376 1155 c 4
-376 484 m 0
 46 484 198 754 198 848 c 0
 198 908 161.7 962 74 962 c 0
 -67.3696 962 -132.529 818.778 -132.529 636.166 c 0
 -132.529 315.002 69.0175 -128 412 -128 c 0
 472.519 -128 528 -70 528 -8 c 0
 528 56.7831 486.679 100.359 468.587 100.359 c 0
 465.725 100.359 463.444 99.2691 462 97 c 1
 462 90.0088 479 62.8184 479 48 c 0
 479 5.40039 445.4 -16 423 -16 c 0
 137.905 -16 -86 422.199 -86 674 c 0
 -86 756.938 -59.0762 876 -12 876 c 0
 72 876 128 860 128 784 c 0
 128 720 -78.7236 578 -200 578 c 0
 -376 484 l 0
-359.992 481 m 1
 -508.437 481 -624.437 496.667 -707.992 528 c 1
 -866.992 387 l 1
 -944.325 314.333 -995.325 246.333 -1019.99 183 c 0
 -1035.99 140.333 -1043.99 94.333 -1043.99 45 c 0
 -1043.99 -73.667 -1010.99 -164.667 -944.992 -228 c 0
 -924.325 -248.667 -898.325 -268.333 -866.992 -287 c 0
 -809.659 -322.333 -722.659 -347 -605.992 -361 c 0
 -562.659 -366.333 -521.325 -369 -481.992 -369 c 0
 -365.325 -369 -283.325 -344 -235.992 -294 c 0
 -210.659 -266.667 -197.992 -233.667 -197.992 -195 c 0
 -197.992 -172.333 -206.992 -152.667 -224.992 -136 c 0
 -231.659 -130.667 -234.992 -126.333 -234.992 -123 c 0
 -234.992 -111.667 -219.992 -96.667 -189.992 -78 c 0
 -172.659 -66.667 -160.325 -61 -152.992 -61 c 0
 -133.659 -61 -123.992 -91.333 -123.992 -152 c 0
 -123.992 -225.333 -162.325 -292.667 -238.992 -354 c 1
 -325.659 -426.667 -439.659 -465 -580.992 -469 c 0
 -602.992 -469 l 0
 -793.659 -469 -939.325 -409 -1039.99 -289 c 0
 -1110.66 -204.985 -1145.99 -115.318 -1145.99 -20 c 0
 -1145.99 90 -1104.66 191.667 -1021.99 285 c 0
 -999.992 309.667 -954.659 353.333 -885.992 416 c 0
 -829.992 467.333 -790.992 509.667 -768.992 543 c 1
 -802.992 552.333 -852.325 557 -916.992 557 c 0
 -1014.33 557 -1084.66 540 -1127.99 506 c 1
 -1136.66 493.333 -1141.99 494.667 -1143.99 510 c 1
 -1151.33 539.333 -1120.66 578.333 -1051.99 627 c 1
 -1023.33 645.667 -979.659 655 -920.992 655 c 0
 -863.659 655 -755.992 641.667 -597.992 615 c 0
 -440.659 588.333 -327.659 575 -258.992 575 c 0
 -171.659 575 -100.659 591.667 -45.9922 625 c 0
 -31.3252 633.667 -23.9922 631.333 -23.9922 618 c 1
 -21.9922 598 -40.9922 575.333 -80.9922 550 c 1
 -157.659 505.333 -250.659 482.333 -359.992 481 c 1
EndSplineSet
Fore
SplineSet
-81 608 m 1
 23 653 128 738 128 784 c 0
 128 860 72 876 -12 876 c 0
 -59 876 -86 757 -86 674 c 0
 -86 653 -84 631 -81 608 c 1
-131 590 m 1
 -132 605 -133 621 -133 636 c 0
 -133 819 -67 962 74 962 c 0
 162 962 198 908 198 848 c 0
 198 782 122 628 -70 543 c 1
 -14 295 183 -16 423 -16 c 0
 445 -16 479 5 479 48 c 0
 479 63 462 90 462 97 c 1
 463 99 466 100 469 100 c 0
 487 100 528 57 528 -8 c 0
 528 -70 473 -128 412 -128 c 0
 108 -128 -85 219 -125 522 c 1
 -195 498 -278 484 -376 484 c 1
 -200 578 l 1
 -179 578 -156 582 -131 590 c 1
EndSplineSet
Validated: 1
EndChar

StartChar: tengwarduodecimal12
Encoding: 49 57468 49
Width: 806
VWidth: 0
Flags: HW
LayerCount: 2
Fore
SplineSet
668 303 m 0
 668 471 508 592 371 592 c 0
 267 592 156 506 156 348 c 0
 156 205 278 66 428 66 c 0
 584 66 668 182 668 303 c 0
78 299 m 1
 78 528 244 678 420 678 c 0
 545 678 606 645 680 563 c 0
 727 512 750 434 750 354 c 0
 750 289 741 246 717 182 c 0
 612 -98 415 -390 325 -522 c 0
 280 -588 243 -639 214 -639 c 0
 208 -639 206 -637 206 -633 c 0
 206 -615 469 -259 608 48 c 1
 547 5 469 -18 379 -18 c 0
 248 -18 186 39 129 119 c 1
 98 166 80 225 78 299 c 1
EndSplineSet
Validated: 1
EndChar

StartChar: tehtaS.swashhyarmenalt
Encoding: 50 -1 50
Width: 620
VWidth: 1000
Flags: HW
LayerCount: 2
Back
SplineSet
-88.8008 -12 m 5
 -53.499 94.0381 l 5
 -24 94.0381 158 284 158 382 c 4
 158 426 118 504 54 504 c 4
 -5 504 -28 440 -28 376 c 4
 -28 250 516 9.59668 516 -228 c 4
 516 -494 294 -582 147 -582 c 4
 59 -582 26 -528 26 -515 c 4
 26 -440 99 -359 110 -376 c 5
 110 -383 93 -410 93 -425 c 4
 93 -468 117 -510 186 -510 c 4
 272 -510 455 -461.5 455 -312.5 c 4
 455 -74.5 -74 130 -74 330 c 4
 -74 449 -25.2461 544 92 544 c 4
 160 544 214 484 214 440 c 4
 214 244 -32 -12 -88.8008 -12 c 5
-560 977 m 0
 -527.333 977 -471.667 895 -393 731 c 1
 -197 303 l 1
 -129.667 163.667 -82 94 -54 94 c 0
 -32.667 94 -9.33301 110.667 16 144 c 0
 36.5713 170.667 50.5713 184 58 184 c 0
 66.667 184 71 180 71 172 c 0
 71 160 57 133 29 91 c 0
 -17 22.333 -56.333 -12 -89 -12 c 0
 -139 -12 -208.667 88 -298 288 c 1
 -386 489 l 1
 -571 113 l 1
 -611 37 -646.333 -9 -677 -25 c 0
 -689 -31.667 -702 -35 -716 -35 c 0
 -738.667 -35 -760.667 -23.667 -782 -1 c 0
 -796.667 15 -804 31 -804 47 c 0
 -804 72.333 -789.333 102 -760 136 c 0
 -746 152 -736 160 -730 160 c 0
 -726.667 160 -723 149.667 -719 129 c 0
 -711.667 92.333 -697.667 74 -677 74 c 0
 -653 74 -628.333 97.667 -603 145 c 0
 -595 160.333 -565.333 227.333 -514 346 c 0
 -482 419.333 -451 486.333 -421 547 c 1
 -435.667 589 -462.333 646.333 -501 719 c 0
 -553 817 -592.667 866 -620 866 c 0
 -629.333 866 -641 856 -655 836 c 0
 -666.333 820.667 -675 813 -681 813 c 1
 -688.333 818.333 -692.333 822.333 -693 825 c 0
 -693 839 -675.333 867.333 -640 910 c 0
 -602.667 954.667 -576 977 -560 977 c 0
EndSplineSet
Fore
SplineSet
-89 -12 m 1
 -53 94 l 1
 -42 94 -9 121 27 160 c 1
 -32 218 -74 274 -74 330 c 0
 -74 449 -25 544 92 544 c 0
 160 544 214 484 214 440 c 0
 214 364 177 279 129 204 c 1
 289 80 516 -75 516 -228 c 0
 516 -494 294 -582 147 -582 c 0
 59 -582 26 -528 26 -515 c 0
 26 -447 86 -374 106 -374 c 0
 107 -374 109 -374 110 -376 c 1
 110 -383 93 -410 93 -425 c 0
 93 -468 117 -510 186 -510 c 0
 272 -510 455 -462 455 -312 c 0
 455 -156 226 -14 69 122 c 1
 5 43 -62 -12 -89 -12 c 1
90 235 m 1
 128 286 158 342 158 382 c 0
 158 426 118 504 54 504 c 0
 -5 504 -28 440 -28 376 c 0
 -28 338 21 290 90 235 c 1
EndSplineSet
Validated: 1
EndChar

StartChar: tehtaS.swashyantaalt
Encoding: 51 -1 51
Width: 620
VWidth: 1000
Flags: HW
LayerCount: 2
Back
SplineSet
-139.44 -7.71094 m 5
 -111.722 97.999 l 5
 -82.2227 97.999 66 286 66 384 c 4
 66 428 26 506 -38 506 c 4
 -97 506 -120 442 -120 378 c 4
 -120 252 512.5 -4.90332 512.5 -242.5 c 4
 512.5 -508.5 362.5 -582.5 167.5 -582.5 c 4
 79 -582.5 26 -528 26 -515 c 4
 26 -440 99 -359 110 -376 c 5
 110 -383 93 -410 93 -425 c 4
 93 -468 139.5 -520 197.5 -520 c 4
 270.5 -520 445 -514.5 445 -325 c 4
 445 -87 -166 132 -166 332 c 4
 -166 451 -117.246 546 0 546 c 4
 68 546 122 486 122 442 c 4
 122 246 -82.6396 -7.71094 -139.44 -7.71094 c 5
-681 78 m 1
 -640.333 78 -580.333 166.333 -501 343 c 0
 -483 383 -468.667 416.667 -458 444 c 1
 -498.667 519.333 -529.333 557 -550 557 c 0
 -559.333 557 -572.333 548.667 -589 532 c 0
 -597 524 -603 520 -607 520 c 0
 -613 520 -616.667 523.333 -618 530 c 1
 -618 543.333 -604.333 566.333 -577 599 c 0
 -545.667 636.333 -519 655 -497 655 c 0
 -461 655 -397 558 -305 364 c 2
 -294 342 l 2
 -262.667 276 -226.333 215.667 -185 161 c 0
 -153.667 119 -129.333 98 -112 98 c 0
 -98 98 -78.667 115 -54 149 c 0
 -34 175 -20.333 188.667 -13 190 c 0
 -7.66699 190 -5 186 -5 178 c 0
 -5 161.333 -18.333 130 -45 84 c 0
 -81.667 22.667 -113.333 -8 -140 -8 c 0
 -180.667 -8 -241.667 63.333 -323 206 c 2
 -423 381 l 1
 -488.333 256.333 -536.667 170 -568 122 c 0
 -635.333 18.667 -689.333 -33 -730 -33 c 0
 -752.667 -33 -773 -19.333 -791 8 c 0
 -799.667 21.333 -804 33 -804 43 c 0
 -804 68.333 -786.333 99.667 -751 137 c 0
 -739 149.667 -731.333 156 -728 156 c 0
 -724 156 -721 147 -719 129 c 1
 -712.333 97 -699.667 80 -681 78 c 1
EndSplineSet
Fore
SplineSet
-139 -8 m 1
 -112 98 l 1
 -101 98 -75 122 -47 157 c 1
 -117 217 -166 275 -166 332 c 0
 -166 451 -117 546 0 546 c 0
 68 546 122 486 122 442 c 0
 122 367 92 283 52 209 c 1
 239 78 512 -86 512 -242 c 0
 512 -508 362 -582 168 -582 c 0
 79 -582 26 -528 26 -515 c 0
 26 -447 86 -374 106 -374 c 0
 107 -374 109 -374 110 -376 c 1
 110 -383 93 -410 93 -425 c 0
 93 -468 140 -520 198 -520 c 0
 270 -520 445 -514 445 -325 c 0
 445 -168 179 -19 -2 122 c 1
 -57 45 -113 -8 -139 -8 c 1
10 238 m 1
 41 289 66 344 66 384 c 0
 66 428 26 506 -38 506 c 0
 -97 506 -120 442 -120 378 c 0
 -120 341 -66 293 10 238 c 1
EndSplineSet
Validated: 1
EndChar

StartChar: tehtaS.swashyanta
Encoding: 52 -1 52
Width: 0
Flags: HW
LayerCount: 2
Back
SplineSet
-681 78 m 5
 -640.333 78 -580.333 166.333 -501 343 c 4
 -483 383 -468.667 416.667 -458 444 c 5
 -498.667 519.333 -529.333 557 -550 557 c 4
 -559.333 557 -572.333 548.667 -589 532 c 4
 -597 524 -603 520 -607 520 c 4
 -613 520 -616.667 523.333 -618 530 c 5
 -618 543.333 -604.333 566.333 -577 599 c 4
 -545.667 636.333 -519 655 -497 655 c 4
 -461 655 -397 558 -305 364 c 6
 -294 342 l 6
 -262.667 276 -226.333 215.667 -185 161 c 4
 -153.667 119 -129.333 98 -112 98 c 4
 -98 98 -78.667 115 -54 149 c 4
 -34 175 -20.333 188.667 -13 190 c 4
 -7.66699 190 -5 186 -5 178 c 4
 -5 161.333 -18.333 130 -45 84 c 4
 -81.667 22.667 -113.333 -8 -140 -8 c 4
 -180.667 -8 -241.667 63.333 -323 206 c 6
 -423 381 l 5
 -488.333 256.333 -536.667 170 -568 122 c 4
 -635.333 18.667 -689.333 -33 -730 -33 c 4
 -752.667 -33 -773 -19.333 -791 8 c 4
 -799.667 21.333 -804 33 -804 43 c 4
 -804 68.333 -786.333 99.667 -751 137 c 4
 -739 149.667 -731.333 156 -728 156 c 4
 -724 156 -721 147 -719 129 c 5
 -712.333 97 -699.667 80 -681 78 c 5
EndSplineSet
Fore
SplineSet
-650 -479 m 128
 -712 -479 -728 -439 -728 -406 c 0
 -728 -342 -666 -267 -650 -267 c 0
 -647 -267 -646 -268 -646 -272 c 1
 -660 -319 l 1
 -660 -350 -636 -385 -609 -385 c 0
 -519 -385 -438 -196 -420 -147 c 1
 -392 -65 -260 207 -191 285 c 0
 -124 362 -70 401 -27 401 c 0
 68 401 85 341 85 305 c 0
 85 231 -45 71 -72 63 c 1
 -85 63 -92 69 -95 82 c 1
 -95 110 -5 186 -5 242 c 0
 -5 282 -45 309 -72 309 c 0
 -91 309 -117 293 -148 262 c 1
 -229 189 -397 -192 -420 -248 c 1
 -468 -361 -558 -479 -650 -479 c 128
EndSplineSet
Validated: 1
EndChar

StartChar: tehtaGrave_tehtaGrave.shift1
Encoding: 53 -1 53
Width: 0
VWidth: 1000
Flags: HW
LayerCount: 2
Fore
SplineSet
-324 1312 m 0
 -311 1312 -296 1306 -279 1293 c 0
 -274 1290 -249 1266 -205 1221 c 0
 -76 1089 -11 1017 -11 1005 c 1
 -14 999 -16 996 -19 996 c 2
 -23 996 l 2
 -30 997 -65 1022 -129 1072 c 0
 -243 1161 -310 1217 -330 1238 c 0
 -345 1253 -353 1267 -353 1279 c 0
 -353 1301 -343 1312 -324 1312 c 0
-422 1271 m 0
 -409 1271 -394 1265 -377 1252 c 0
 -372 1249 -347 1225 -303 1180 c 0
 -174 1048 -109 976 -109 964 c 1
 -112 958 -114 955 -117 955 c 2
 -121 955 l 2
 -128 956 -163 981 -227 1031 c 0
 -341 1120 -408 1176 -428 1197 c 0
 -443 1212 -451 1226 -451 1238 c 0
 -451 1260 -441 1271 -422 1271 c 0
EndSplineSet
Validated: 1
EndChar

StartChar: tehtaGrave_tehtaGrave.shift2
Encoding: 54 -1 54
Width: 0
VWidth: 1000
Flags: HW
LayerCount: 2
Fore
SplineSet
-456 1312 m 0
 -443 1312 -428 1306 -411 1293 c 0
 -406 1290 -381 1266 -337 1221 c 0
 -208 1089 -143 1017 -143 1005 c 1
 -146 999 -148 996 -151 996 c 2
 -155 996 l 2
 -162 997 -197 1022 -261 1072 c 0
 -375 1161 -442 1217 -462 1238 c 0
 -477 1253 -485 1267 -485 1279 c 0
 -485 1301 -475 1312 -456 1312 c 0
-554 1271 m 0
 -541 1271 -526 1265 -509 1252 c 0
 -504 1249 -479 1225 -435 1180 c 0
 -306 1048 -241 976 -241 964 c 1
 -244 958 -246 955 -249 955 c 2
 -253 955 l 2
 -260 956 -295 981 -359 1031 c 0
 -473 1120 -540 1176 -560 1197 c 0
 -575 1212 -583 1226 -583 1238 c 0
 -583 1260 -573 1271 -554 1271 c 0
EndSplineSet
Validated: 1
EndChar

StartChar: tehtaGrave_tehtaGrave.shift3
Encoding: 55 -1 55
Width: 0
VWidth: 1000
Flags: HW
LayerCount: 2
Fore
SplineSet
-588 1309 m 0
 -575 1309 -560 1303 -543 1290 c 0
 -538 1287 -513 1263 -469 1218 c 0
 -340 1086 -275 1014 -275 1002 c 1
 -278 996 -280 993 -283 993 c 2
 -287 993 l 2
 -294 994 -329 1019 -393 1069 c 0
 -507 1158 -574 1214 -594 1235 c 0
 -609 1250 -617 1264 -617 1276 c 0
 -617 1298 -607 1309 -588 1309 c 0
-686 1268 m 0
 -673 1268 -658 1262 -641 1249 c 0
 -636 1246 -611 1222 -567 1177 c 0
 -438 1045 -373 973 -373 961 c 1
 -376 955 -378 952 -381 952 c 2
 -385 952 l 2
 -392 953 -427 978 -491 1028 c 0
 -605 1117 -672 1173 -692 1194 c 0
 -707 1209 -715 1223 -715 1235 c 0
 -715 1257 -705 1268 -686 1268 c 0
EndSplineSet
Validated: 1
EndChar

StartChar: tehtaGrave_tehtaGrave.shift4
Encoding: 56 -1 56
Width: 0
VWidth: 1000
Flags: HW
LayerCount: 2
Fore
SplineSet
-717 1309 m 0
 -704 1309 -689 1303 -672 1290 c 0
 -667 1287 -642 1263 -598 1218 c 0
 -469 1086 -404 1014 -404 1002 c 1
 -407 996 -409 993 -412 993 c 2
 -416 993 l 2
 -423 994 -458 1019 -522 1069 c 0
 -636 1158 -703 1214 -723 1235 c 0
 -738 1250 -746 1264 -746 1276 c 0
 -746 1298 -736 1309 -717 1309 c 0
-815 1268 m 0
 -802 1268 -787 1262 -770 1249 c 0
 -765 1246 -740 1222 -696 1177 c 0
 -567 1045 -502 973 -502 961 c 1
 -505 955 -507 952 -510 952 c 2
 -514 952 l 2
 -521 953 -556 978 -620 1028 c 0
 -734 1117 -801 1173 -821 1194 c 0
 -836 1209 -844 1223 -844 1235 c 0
 -844 1257 -834 1268 -815 1268 c 0
EndSplineSet
Validated: 1
EndChar

StartChar: tehtaYB.lambe
Encoding: 57 -1 57
Width: 0
VWidth: 0
Flags: HW
LayerCount: 2
Back
SplineSet
-690 -655 m 5
 -695.333 -568.333 -698 -510.333 -698 -481 c 4
 -698 -301 -665.333 -211 -600 -211 c 5
 -587 -213 l 5
 -586 -213 l 5
 -582 -273.667 -580 -328.333 -580 -377 c 4
 -580 -565 -609.333 -659 -668 -659 c 4
 -672 -659 -679.333 -657.667 -690 -655 c 5
-621 150 m 5
 -469 139 l 5
 -432.333 139 -382.333 143.333 -319 152 c 5
 -331 102 -365.333 72 -422 62 c 4
 -443.333 58.6667 -473.333 57 -512 57 c 5
 -640 61 l 5
 -641 61 l 6
 -685.667 61 -741.667 58.3333 -809 53 c 5
 -789.667 105.667 -748.667 136.667 -686 146 c 4
 -667.333 148.667 -645.667 150 -621 150 c 5
-502 154 m 5
 -446 138.667 -393.667 139.667 -345 157 c 4
 -339.667 159 -312.667 170 -264 190 c 5
 -317.306 81.4133 -380.973 31.7466 -455 41 c 4
 -483.667 44.3333 -528.667 54.3333 -590 71 c 4
 -640.667 84.3333 -691 86.3333 -741 77 c 4
 -770.333 71.6667 -804 63 -842 51 c 5
 -801.333 107.667 -766.667 144.333 -738 161 c 4
 -689.797 188.777 -611.131 186.444 -502 154 c 5
-360 481 m 5
 -508.444 481 -624.444 496.667 -708 528 c 5
 -867 387 l 5
 -944.333 314.333 -995.333 246.333 -1020 183 c 4
 -1036 140.333 -1044 94.333 -1044 45 c 4
 -1044 -73.667 -1011 -164.667 -945 -228 c 4
 -924.333 -248.667 -898.333 -268.333 -867 -287 c 4
 -809.667 -322.333 -722.667 -347 -606 -361 c 4
 -562.667 -366.333 -521.333 -369 -482 -369 c 4
 -365.333 -369 -283.333 -344 -236 -294 c 4
 -210.667 -266.667 -198 -233.667 -198 -195 c 4
 -198 -172.333 -207 -152.667 -225 -136 c 4
 -231.667 -130.667 -235 -126.333 -235 -123 c 4
 -235 -111.667 -220 -96.667 -190 -78 c 4
 -172.667 -66.667 -160.333 -61 -153 -61 c 4
 -133.667 -61 -124 -91.333 -124 -152 c 4
 -124 -225.333 -162.333 -292.667 -239 -354 c 5
 -325.667 -426.667 -439.667 -465 -581 -469 c 4
 -603 -469 l 4
 -793.667 -469 -939.333 -409 -1040 -289 c 4
 -1110.67 -204.985 -1146 -115.318 -1146 -20 c 4
 -1146 90 -1104.67 191.667 -1022 285 c 4
 -1000 309.667 -954.667 353.333 -886 416 c 4
 -830 467.333 -791 509.667 -769 543 c 5
 -803 552.333 -852.333 557 -917 557 c 4
 -1014.33 557 -1084.67 540 -1128 506 c 5
 -1136.67 493.333 -1142 494.667 -1144 510 c 5
 -1151.33 539.333 -1120.67 578.333 -1052 627 c 5
 -1023.33 645.667 -979.667 655 -921 655 c 4
 -863.667 655 -756 641.667 -598 615 c 4
 -440.667 588.333 -327.667 575 -259 575 c 4
 -171.667 575 -100.667 591.667 -46 625 c 4
 -31.333 633.667 -24 631.333 -24 618 c 5
 -22 598 -41 575.333 -81 550 c 5
 -157.667 505.333 -250.667 482.333 -360 481 c 5
EndSplineSet
Fore
SplineSet
-772 -92 m 0
 -772 -85 -758 -63 -728 -24 c 1
 -717 -10 -709 -3 -704 -2 c 0
 -696 -2 -672 -19 -632 -52 c 2
 -626 -56 l 2
 -614 -66 -608 -74 -606 -82 c 1
 -606 -96 -620 -118 -648 -148 c 0
 -660 -163 -668 -170 -672 -170 c 0
 -677 -170 -698 -156 -736 -128 c 0
 -757 -111 -769 -101 -770 -98 c 0
 -772 -96 -772 -94 -772 -92 c 0
-522 -90 m 0
 -522 -83 -508 -61 -478 -22 c 1
 -467 -8 -459 -1 -454 0 c 0
 -446 0 -422 -17 -382 -50 c 2
 -376 -54 l 2
 -364 -64 -358 -72 -356 -80 c 1
 -356 -94 -370 -116 -398 -146 c 0
 -410 -161 -418 -168 -422 -168 c 0
 -427 -168 -448 -154 -486 -126 c 0
 -507 -109 -519 -99 -520 -96 c 0
 -522 -94 -522 -92 -522 -90 c 0
EndSplineSet
Validated: 1
EndChar

StartChar: tehtaIB.lambe
Encoding: 58 -1 58
Width: 0
VWidth: 1000
Flags: HW
LayerCount: 2
Back
SplineSet
-690 -655 m 5
 -695.333 -568.333 -698 -510.333 -698 -481 c 4
 -698 -301 -665.333 -211 -600 -211 c 5
 -587 -213 l 5
 -586 -213 l 5
 -582 -273.667 -580 -328.333 -580 -377 c 4
 -580 -565 -609.333 -659 -668 -659 c 4
 -672 -659 -679.333 -657.667 -690 -655 c 5
-621 150 m 5
 -469 139 l 5
 -432.333 139 -382.333 143.333 -319 152 c 5
 -331 102 -365.333 72 -422 62 c 4
 -443.333 58.6667 -473.333 57 -512 57 c 5
 -640 61 l 5
 -641 61 l 6
 -685.667 61 -741.667 58.3333 -809 53 c 5
 -789.667 105.667 -748.667 136.667 -686 146 c 4
 -667.333 148.667 -645.667 150 -621 150 c 5
-502 154 m 5
 -446 138.667 -393.667 139.667 -345 157 c 4
 -339.667 159 -312.667 170 -264 190 c 5
 -317.306 81.4133 -380.973 31.7466 -455 41 c 4
 -483.667 44.3333 -528.667 54.3333 -590 71 c 4
 -640.667 84.3333 -691 86.3333 -741 77 c 4
 -770.333 71.6667 -804 63 -842 51 c 5
 -801.333 107.667 -766.667 144.333 -738 161 c 4
 -689.797 188.777 -611.131 186.444 -502 154 c 5
-360 481 m 5
 -508.444 481 -624.444 496.667 -708 528 c 5
 -867 387 l 5
 -944.333 314.333 -995.333 246.333 -1020 183 c 4
 -1036 140.333 -1044 94.333 -1044 45 c 4
 -1044 -73.667 -1011 -164.667 -945 -228 c 4
 -924.333 -248.667 -898.333 -268.333 -867 -287 c 4
 -809.667 -322.333 -722.667 -347 -606 -361 c 4
 -562.667 -366.333 -521.333 -369 -482 -369 c 4
 -365.333 -369 -283.333 -344 -236 -294 c 4
 -210.667 -266.667 -198 -233.667 -198 -195 c 4
 -198 -172.333 -207 -152.667 -225 -136 c 4
 -231.667 -130.667 -235 -126.333 -235 -123 c 4
 -235 -111.667 -220 -96.667 -190 -78 c 4
 -172.667 -66.667 -160.333 -61 -153 -61 c 4
 -133.667 -61 -124 -91.333 -124 -152 c 4
 -124 -225.333 -162.333 -292.667 -239 -354 c 5
 -325.667 -426.667 -439.667 -465 -581 -469 c 4
 -603 -469 l 4
 -793.667 -469 -939.333 -409 -1040 -289 c 4
 -1110.67 -204.985 -1146 -115.318 -1146 -20 c 4
 -1146 90 -1104.67 191.667 -1022 285 c 4
 -1000 309.667 -954.667 353.333 -886 416 c 4
 -830 467.333 -791 509.667 -769 543 c 5
 -803 552.333 -852.333 557 -917 557 c 4
 -1014.33 557 -1084.67 540 -1128 506 c 5
 -1136.67 493.333 -1142 494.667 -1144 510 c 5
 -1151.33 539.333 -1120.67 578.333 -1052 627 c 5
 -1023.33 645.667 -979.667 655 -921 655 c 4
 -863.667 655 -756 641.667 -598 615 c 4
 -440.667 588.333 -327.667 575 -259 575 c 4
 -171.667 575 -100.667 591.667 -46 625 c 4
 -31.333 633.667 -24 631.333 -24 618 c 5
 -22 598 -41 575.333 -81 550 c 5
 -157.667 505.333 -250.667 482.333 -360 481 c 5
EndSplineSet
Fore
SplineSet
-644 -89 m 4
 -644 -83 -629 -60 -600 -21 c 5
 -589 -8 -581 -1 -576 0 c 4
 -568 0 -544 -17 -503 -50 c 6
 -498 -54 l 6
 -486 -63 -479 -72 -478 -80 c 5
 -478 -93 -492 -115 -519 -146 c 4
 -532 -161 -540 -168 -543 -168 c 4
 -548 -168 -570 -154 -607 -125 c 4
 -629 -109 -641 -99 -642 -96 c 4
 -643 -94 -644 -92 -644 -89 c 4
EndSplineSet
Validated: 1
EndChar

StartChar: tehtaB.shift1
Encoding: 59 -1 59
Width: 0
VWidth: 1000
Flags: HW
LayerCount: 2
Back
SplineSet
-172 322 m 4
 -170.667 420 -170.333 471.667 -171 477 c 4
 -173.667 511.667 -185 535.667 -205 549 c 4
 -211.667 553 -219.667 557 -229 561 c 5
 -247 559.667 -243 576.667 -217 612 c 4
 -177.581 666.749 -138.247 674.083 -99 634 c 4
 -89 623.333 -83 614.667 -81 608 c 4
 -76.333 590 -75 548.333 -77 483 c 5
 -69.667 304.333 -70 181.667 -78 115 c 4
 -78.667 113.667 -79 112.333 -79 111 c 4
 -86.333 67.667 -130.333 20.333 -211 -31 c 5
 -216.333 -33 -219 -31 -219 -25 c 5
 -194.333 23 -180 70.667 -176 118 c 4
 -174.667 136.667 -173.333 204.667 -172 322 c 4
EndSplineSet
Fore
SplineSet
-343 -244 m 1
 -322 -184 -277 -154 -209 -154 c 1
 -100 -162 l 1
 -97 -162 l 2
 -61 -162 -19 -158 30 -150 c 1
 18 -201 -8 -231 -47 -242 c 0
 -62 -246 -81 -248 -103 -248 c 2
 -272 -242 l 1
 -274 -242 l 2
 -304 -242 -327 -243 -343 -244 c 1
EndSplineSet
Validated: 1
EndChar

StartChar: tehtaB.altshift1
Encoding: 60 -1 60
Width: 0
VWidth: 1000
Flags: HW
LayerCount: 2
Back
SplineSet
-172 322 m 4
 -170.667 420 -170.333 471.667 -171 477 c 4
 -173.667 511.667 -185 535.667 -205 549 c 4
 -211.667 553 -219.667 557 -229 561 c 5
 -247 559.667 -243 576.667 -217 612 c 4
 -177.581 666.749 -138.247 674.083 -99 634 c 4
 -89 623.333 -83 614.667 -81 608 c 4
 -76.333 590 -75 548.333 -77 483 c 5
 -69.667 304.333 -70 181.667 -78 115 c 4
 -78.667 113.667 -79 112.333 -79 111 c 4
 -86.333 67.667 -130.333 20.333 -211 -31 c 5
 -216.333 -33 -219 -31 -219 -25 c 5
 -194.333 23 -180 70.667 -176 118 c 4
 -174.667 136.667 -173.333 204.667 -172 322 c 4
EndSplineSet
Fore
SplineSet
-354 -293 m 1
 -324 -200 -282 -154 -228 -154 c 0
 -198 -154 -164 -164 -128 -184 c 0
 -104 -197 -85 -203 -71 -203 c 0
 -42 -203 -7 -185 33 -149 c 1
 3 -241 -29 -287 -63 -287 c 0
 -99 -287 -133 -279 -167 -262 c 0
 -194 -249 -219 -242 -242 -242 c 0
 -260 -242 -297 -259 -354 -293 c 1
EndSplineSet
Validated: 1
EndChar

StartChar: tehtaN.shift1
Encoding: 61 -1 61
Width: 0
VWidth: 1000
Flags: HW
LayerCount: 2
Back
SplineSet
-172 322 m 4
 -170.667 420 -170.333 471.667 -171 477 c 4
 -173.667 511.667 -185 535.667 -205 549 c 4
 -211.667 553 -219.667 557 -229 561 c 5
 -247 559.667 -243 576.667 -217 612 c 4
 -177.581 666.749 -138.247 674.083 -99 634 c 4
 -89 623.333 -83 614.667 -81 608 c 4
 -76.333 590 -75 548.333 -77 483 c 5
 -69.667 304.333 -70 181.667 -78 115 c 4
 -78.667 113.667 -79 112.333 -79 111 c 4
 -86.333 67.667 -130.333 20.333 -211 -31 c 5
 -216.333 -33 -219 -31 -219 -25 c 5
 -194.333 23 -180 70.667 -176 118 c 4
 -174.667 136.667 -173.333 204.667 -172 322 c 4
EndSplineSet
Fore
Refer: 59 -1 S 1 0 0 1 0 1106 2
Validated: 1
EndChar

StartChar: tehtaN.altshift1
Encoding: 62 -1 62
Width: 0
VWidth: 1000
Flags: HW
LayerCount: 2
Back
SplineSet
-172 322 m 4
 -170.667 420 -170.333 471.667 -171 477 c 4
 -173.667 511.667 -185 535.667 -205 549 c 4
 -211.667 553 -219.667 557 -229 561 c 5
 -247 559.667 -243 576.667 -217 612 c 4
 -177.581 666.749 -138.247 674.083 -99 634 c 4
 -89 623.333 -83 614.667 -81 608 c 4
 -76.333 590 -75 548.333 -77 483 c 5
 -69.667 304.333 -70 181.667 -78 115 c 4
 -78.667 113.667 -79 112.333 -79 111 c 4
 -86.333 67.667 -130.333 20.333 -211 -31 c 5
 -216.333 -33 -219 -31 -219 -25 c 5
 -194.333 23 -180 70.667 -176 118 c 4
 -174.667 136.667 -173.333 204.667 -172 322 c 4
EndSplineSet
Fore
Refer: 60 -1 S 1 0 0 1 0 1108 2
Validated: 1
EndChar

StartChar: tengwarExclamationB
Encoding: 65 57452 65
Width: 839
Flags: HW
LayerCount: 2
Fore
SplineSet
319 347 m 0
 319 353.22 333.666666667 375.886666667 363 415 c 0
 374.333333333 428.333333333 382.333333333 435.333333333 387 436 c 0
 395 436 419.333333333 419.333333333 460 386 c 0
 465 382 l 0
 477 372.666666667 483.666666667 364 485 356 c 0
 485 342.666666667 471.333333333 320.666666667 444 290 c 0
 431.333333333 275.333333333 423.333333333 268 420 268 c 0
 414.666666667 268 393.333333333 282.333333333 356 311 c 0
 334.132666667 327.4 322.466 337.066666667 321 340 c 0
 319.666666667 342 319 344.333333333 319 347 c 0
410 909 m 0
 414.666666667 909 420.333333333 906.166666667 427 900.5 c 0
 433.666666667 894.833333333 442.166666667 885 452.5 871 c 0
 462.833333333 857 471.5 844.833333333 478.5 834.5 c 0
 510 786 l 0
 550.666666667 722.666666667 595 667 643 619 c 0
 691 571 723.666666667 547 741 547 c 0
 753 547 768.666666667 559.666666667 788 585 c 0
 807.333333333 610.333333333 820.333333333 623 827 623 c 0
 833 623 836 618.666666667 836 610 c 0
 836 590 821.166666667 556 791.5 508 c 0
 761.833333333 460 734.333333333 436 709 436 c 0
 682.333333333 436 645 458.666666667 597 504 c 0
 549 549.333333333 506.5 596 469.5 644 c 0
 432.5 692 404.333333333 732 385 764 c 0
 368.333333333 732.666666667 348.833333333 699.333333333 326.5 664 c 0
 304.166666667 628.666666667 278.5 590.833333333 249.5 550.5 c 0
 220.5 510.166666667 190.5 477 159.5 451 c 0
 128.5 425 101.333333333 412 78 412 c 0
 59.3333333333 412 42.3333333333 418.666666667 27 432 c 0
 11.6666666667 445.333333333 4 461.666666667 4 481 c 0
 4 494.333333333 9.83333333333 509.5 21.5 526.5 c 0
 33.1666666667 543.5 45 557.333333333 57 568 c 0
 69 578.666666667 76.6666666667 584 80 584 c 0
 84 584 89.6666666667 573.666666667 97 553 c 0
 104.333333333 532.333333333 114.333333333 522 127 522 c 0
 155.666666667 522 186.666666667 542.166666667 220 582.5 c 0
 253.333333333 622.833333333 282 667.166666667 306 715.5 c 0
 372.5 848.5 l 0
 410 909 l 0
EndSplineSet
EndChar
